<svg data-v-423bf9ae="" xmlns="http://www.w3.org/2000/svg" viewBox="0 0 2030.8262831923728 193" class="fontAboveSlogan"><!----><!----><!----><g data-v-423bf9ae="" id="0ef184ca-56b9-4101-b6b9-4e4112086f76" fill="white" transform="matrix(11.764705002376706,0,0,11.764705002376706,503.4371058597103,-83.85999037237787)"><path d="M10.10 8.90L10.10 8.90L8.78 10.10L8.55 10.06L8.55 10.06Q8.42 9.58 8.22 9.19L8.22 9.19L8.22 9.19Q8.02 8.80 7.71 8.47L7.71 8.47L7.71 8.47Q7.41 8.13 6.96 7.95L6.96 7.95L6.96 7.95Q6.51 7.77 5.95 7.77L5.95 7.77L5.95 7.77Q5.37 7.77 4.89 7.96L4.89 7.96L4.89 7.96Q4.41 8.16 4.08 8.49L4.08 8.49L4.08 8.49Q3.75 8.83 3.50 9.26L3.50 9.26L3.50 9.26Q3.25 9.68 3.11 10.17L3.11 10.17L3.11 10.17Q2.97 10.66 2.91 11.13L2.91 11.13L2.91 11.13Q2.84 11.59 2.84 12.05L2.84 12.05L2.84 12.05Q2.84 12.67 2.97 13.27L2.97 13.27L2.97 13.27Q3.09 13.88 3.37 14.46L3.37 14.46L3.37 14.46Q3.66 15.05 4.07 15.50L4.07 15.50L4.07 15.50Q4.48 15.94 5.11 16.21L5.11 16.21L5.11 16.21Q5.74 16.49 6.49 16.49L6.49 16.49L6.49 16.49Q7.88 16.49 9.69 15.61L9.69 15.61L9.98 15.96L9.98 15.96Q8.00 17.34 5.92 17.34L5.92 17.34L5.92 17.34Q4.81 17.34 3.92 17.07L3.92 17.07L3.92 17.07Q3.03 16.80 2.45 16.34L2.45 16.34L2.45 16.34Q1.87 15.88 1.49 15.24L1.49 15.24L1.49 15.24Q1.11 14.61 0.95 13.92L0.95 13.92L0.95 13.92Q0.79 13.23 0.79 12.46L0.79 12.46L0.79 12.46Q0.79 9.98 2.26 8.65L2.26 8.65L2.26 8.65Q3.06 7.92 4.12 7.53L4.12 7.53L4.12 7.53Q5.18 7.14 6.33 7.14L6.33 7.14L6.33 7.14Q7.68 7.14 8.59 7.55L8.59 7.55L8.59 7.55Q9.49 7.96 10.10 8.90ZM11.93 13.82L11.93 13.82L11.93 13.82Q11.93 14.13 11.97 14.48L11.97 14.48L11.97 14.48Q12.01 14.82 12.13 15.22L12.13 15.22L12.13 15.22Q12.24 15.63 12.42 15.94L12.42 15.94L12.42 15.94Q12.60 16.25 12.91 16.46L12.91 16.46L12.91 16.46Q13.22 16.67 13.61 16.67L13.61 16.67L13.61 16.67Q13.99 16.67 14.28 16.56L14.28 16.56L14.28 16.56Q14.57 16.45 14.76 16.29L14.76 16.29L14.76 16.29Q14.96 16.13 15.09 15.85L15.09 15.85L15.09 15.85Q15.23 15.57 15.30 15.31L15.30 15.31L15.30 15.31Q15.37 15.06 15.42 14.68L15.42 14.68L15.42 14.68Q15.46 14.29 15.46 14.02L15.46 14.02L15.46 14.02Q15.47 13.75 15.47 13.34L15.47 13.34L15.47 13.34Q15.47 12.86 15.39 12.44L15.39 12.44L15.39 12.44Q15.31 12.02 15.12 11.65L15.12 11.65L15.12 11.65Q14.94 11.28 14.59 11.06L14.59 11.06L14.59 11.06Q14.25 10.85 13.77 10.85L13.77 10.85L13.77 10.85Q13.35 10.85 13.02 11.04L13.02 11.04L13.02 11.04Q12.69 11.24 12.49 11.54L12.49 11.54L12.49 11.54Q12.29 11.84 12.16 12.25L12.16 12.25L12.16 12.25Q12.02 12.65 11.98 13.04L11.98 13.04L11.98 13.04Q11.93 13.42 11.93 13.82ZM10.12 13.83L10.12 13.83L10.12 13.83Q10.12 12.30 11.18 11.29L11.18 11.29L11.18 11.29Q12.23 10.29 13.86 10.29L13.86 10.29L13.86 10.29Q15.48 10.29 16.34 11.05L16.34 11.05L16.34 11.05Q17.27 11.91 17.27 13.25L17.27 13.25L17.27 13.25Q17.27 14.10 17.08 14.77L17.08 14.77L17.08 14.77Q16.88 15.45 16.54 15.91L16.54 15.91L16.54 15.91Q16.19 16.37 15.71 16.67L15.71 16.67L15.71 16.67Q15.23 16.97 14.68 17.11L14.68 17.11L14.68 17.11Q14.13 17.25 13.49 17.25L13.49 17.25L13.49 17.25Q11.87 17.25 11.13 16.57L11.13 16.57L11.13 16.57Q10.12 15.66 10.12 13.83ZM23.46 10.57L23.46 10.57L24.90 10.09L25.07 10.23L25.07 10.23Q25.00 11.81 25.00 14.05L25.00 14.05L25.00 14.05Q25.00 14.10 24.99 14.31L24.99 14.31L24.99 14.31Q24.98 14.53 24.98 14.69L24.98 14.69L24.98 14.69Q24.97 14.85 25.00 15.08L25.00 15.08L25.00 15.08Q25.02 15.31 25.08 15.46L25.08 15.46L25.08 15.46Q25.14 15.61 25.26 15.72L25.26 15.72L25.26 15.72Q25.39 15.83 25.57 15.83L25.57 15.83L25.57 15.83Q25.86 15.83 26.52 15.44L26.52 15.44L26.67 15.44L26.78 15.72L26.78 15.72Q26.44 16.05 26.26 16.22L26.26 16.22L26.26 16.22Q26.08 16.39 25.75 16.67L25.75 16.67L25.75 16.67Q25.42 16.94 25.13 17.07L25.13 17.07L25.13 17.07Q24.85 17.20 24.60 17.20L24.60 17.20L24.60 17.20Q23.73 17.20 23.58 16.24L23.58 16.24L23.45 16.15L23.45 16.15Q23.35 16.21 23.03 16.38L23.03 16.38L23.03 16.38Q22.71 16.54 22.56 16.62L22.56 16.62L22.56 16.62Q22.41 16.70 22.12 16.83L22.12 16.83L22.12 16.83Q21.83 16.97 21.65 17.03L21.65 17.03L21.65 17.03Q21.46 17.09 21.23 17.14L21.23 17.14L21.23 17.14Q21 17.20 20.82 17.20L20.82 17.20L20.82 17.20Q19.95 17.20 19.46 16.74L19.46 16.74L19.46 16.74Q19.38 16.67 19.32 16.59L19.32 16.59L19.32 16.59Q19.26 16.52 19.22 16.41L19.22 16.41L19.22 16.41Q19.17 16.30 19.14 16.21L19.14 16.21L19.14 16.21Q19.11 16.12 19.10 15.96L19.10 15.96L19.10 15.96Q19.08 15.80 19.07 15.70L19.07 15.70L19.07 15.70Q19.06 15.59 19.06 15.38L19.06 15.38L19.06 15.38Q19.05 15.16 19.05 15.04L19.05 15.04L19.05 15.04Q19.05 14.92 19.05 14.65L19.05 14.65L19.05 14.65Q19.05 14.38 19.05 14.23L19.05 14.23L19.05 14.23Q19.05 14.07 19.06 13.76L19.06 13.76L19.06 13.76Q19.07 13.46 19.07 13.32L19.07 13.32L19.07 13.32Q19.07 13.20 19.07 12.97L19.07 12.97L19.07 12.97Q19.07 12.74 19.07 12.62L19.07 12.62L19.07 12.62Q19.07 12.50 19.07 12.30L19.07 12.30L19.07 12.30Q19.07 12.11 19.05 12.00L19.05 12.00L19.05 12.00Q19.04 11.89 19.01 11.74L19.01 11.74L19.01 11.74Q18.99 11.59 18.95 11.52L18.95 11.52L18.95 11.52Q18.90 11.44 18.85 11.36L18.85 11.36L18.85 11.36Q18.79 11.28 18.71 11.25L18.71 11.25L18.71 11.25Q18.62 11.21 18.52 11.21L18.52 11.21L18.52 11.21Q18.27 11.21 17.66 11.59L17.66 11.59L17.47 11.24L17.47 11.24Q17.81 10.98 17.99 10.86L17.99 10.86L17.99 10.86Q18.17 10.73 18.50 10.53L18.50 10.53L18.50 10.53Q18.83 10.33 19.10 10.24L19.10 10.24L19.10 10.24Q19.38 10.14 19.63 10.14L19.63 10.14L19.63 10.14Q19.95 10.14 20.17 10.25L20.17 10.25L20.17 10.25Q20.38 10.36 20.49 10.55L20.49 10.55L20.49 10.55Q20.60 10.75 20.64 10.97L20.64 10.97L20.64 10.97Q20.69 11.19 20.69 11.48L20.69 11.48L20.69 11.48Q20.69 11.73 20.64 12.60L20.64 12.60L20.64 12.60Q20.59 13.46 20.59 13.92L20.59 13.92L20.59 13.92Q20.59 14.39 20.62 14.71L20.62 14.71L20.62 14.71Q20.64 15.03 20.73 15.32L20.73 15.32L20.73 15.32Q20.81 15.62 20.96 15.79L20.96 15.79L20.96 15.79Q21.10 15.96 21.35 16.06L21.35 16.06L21.35 16.06Q21.59 16.17 21.94 16.17L21.94 16.17L21.94 16.17Q22.37 16.17 22.74 16.00L22.74 16.00L22.74 16.00Q23.10 15.83 23.53 15.50L23.53 15.50L23.53 15.50Q23.54 14.95 23.54 13.79L23.54 13.79L23.54 13.79Q23.54 12.11 23.46 10.57ZM29.20 16.63L29.20 16.63L27.71 17.17L27.43 17.08L27.43 17.08Q27.53 13.81 27.53 12.97L27.53 12.97L27.53 12.97Q27.53 12.92 27.53 12.81L27.53 12.81L27.53 12.81Q27.53 12.61 27.53 12.51L27.53 12.51L27.53 12.51Q27.53 12.41 27.52 12.24L27.52 12.24L27.52 12.24Q27.51 12.07 27.50 11.98L27.50 11.98L27.50 11.98Q27.49 11.89 27.47 11.75L27.47 11.75L27.47 11.75Q27.45 11.62 27.41 11.55L27.41 11.55L27.41 11.55Q27.37 11.48 27.32 11.41L27.32 11.41L27.32 11.41Q27.27 11.34 27.19 11.31L27.19 11.31L27.19 11.31Q27.12 11.28 27.02 11.28L27.02 11.28L27.02 11.28Q26.83 11.28 26.56 11.41L26.56 11.41L26.56 11.41Q26.28 11.53 26.07 11.70L26.07 11.70L25.85 11.38L25.85 11.38Q26.17 11.12 26.37 10.98L26.37 10.98L26.37 10.98Q26.56 10.83 26.88 10.64L26.88 10.64L26.88 10.64Q27.20 10.44 27.49 10.34L27.49 10.34L27.49 10.34Q27.79 10.25 28.06 10.25L28.06 10.25L28.06 10.25Q28.59 10.25 28.79 10.56L28.79 10.56L28.79 10.56Q28.98 10.88 28.98 11.46L28.98 11.46L29.13 11.53L29.13 11.53Q29.67 10.98 30.19 10.63L30.19 10.63L30.19 10.63Q30.71 10.29 31.25 10.29L31.25 10.29L31.25 10.29Q31.81 10.29 32.08 10.65L32.08 10.65L32.08 10.65Q32.35 11.02 32.35 11.55L32.35 11.55L31.31 12.36L31.12 12.24L31.12 12.24Q31.06 11.92 30.85 11.70L30.85 11.70L30.85 11.70Q30.65 11.48 30.32 11.48L30.32 11.48L30.32 11.48Q29.93 11.48 29.66 11.68L29.66 11.68L29.66 11.68Q29.38 11.87 29.25 12.20L29.25 12.20L29.25 12.20Q29.11 12.52 29.06 12.84L29.06 12.84L29.06 12.84Q29.00 13.16 29.00 13.49L29.00 13.49L29.00 13.49Q29.00 14.42 29.20 16.63ZM37.34 11.13L37.34 11.13L36.32 12.16L36.11 12.11L36.11 12.11Q36.07 11.85 35.97 11.61L35.97 11.61L35.97 11.61Q35.88 11.37 35.72 11.16L35.72 11.16L35.72 11.16Q35.56 10.94 35.31 10.82L35.31 10.82L35.31 10.82Q35.05 10.69 34.74 10.69L34.74 10.69L34.74 10.69Q34.28 10.69 34.05 10.96L34.05 10.96L34.05 10.96Q33.82 11.22 33.82 11.70L33.82 11.70L33.82 11.70Q33.82 11.87 33.89 12.03L33.89 12.03L33.89 12.03Q33.95 12.20 34.04 12.32L34.04 12.32L34.04 12.32Q34.13 12.44 34.29 12.57L34.29 12.57L34.29 12.57Q34.46 12.71 34.58 12.79L34.58 12.79L34.58 12.79Q34.70 12.87 34.92 12.98L34.92 12.98L34.92 12.98Q35.14 13.10 35.25 13.15L35.25 13.15L35.25 13.15Q35.35 13.19 35.57 13.30L35.57 13.30L35.57 13.30Q36.11 13.54 36.42 13.71L36.42 13.71L36.42 13.71Q36.72 13.88 36.97 14.10L36.97 14.10L36.97 14.10Q37.23 14.31 37.33 14.56L37.33 14.56L37.33 14.56Q37.43 14.81 37.43 15.16L37.43 15.16L37.43 15.16Q37.43 15.68 37.15 16.11L37.15 16.11L37.15 16.11Q36.87 16.53 36.42 16.78L36.42 16.78L36.42 16.78Q35.97 17.04 35.45 17.17L35.45 17.17L35.45 17.17Q34.92 17.30 34.38 17.30L34.38 17.30L34.38 17.30Q32.81 17.30 31.96 16.37L31.96 16.37L32.85 15.05L33.06 15.06L33.06 15.06Q33.15 15.42 33.26 15.67L33.26 15.67L33.26 15.67Q33.37 15.93 33.55 16.21L33.55 16.21L33.55 16.21Q33.74 16.49 34.02 16.64L34.02 16.64L34.02 16.64Q34.31 16.78 34.69 16.78L34.69 16.78L34.69 16.78Q35.17 16.78 35.51 16.50L35.51 16.50L35.51 16.50Q35.85 16.21 35.85 15.76L35.85 15.76L35.85 15.76Q35.85 15.42 35.53 15.11L35.53 15.11L35.53 15.11Q35.38 14.97 35.06 14.80L35.06 14.80L35.06 14.80Q34.75 14.63 34.42 14.48L34.42 14.48L34.42 14.48Q34.10 14.33 33.74 14.13L33.74 14.13L33.74 14.13Q33.38 13.92 33.11 13.70L33.11 13.70L33.11 13.70Q32.83 13.47 32.65 13.15L32.65 13.15L32.65 13.15Q32.47 12.82 32.47 12.46L32.47 12.46L32.47 12.46Q32.47 11.88 32.70 11.43L32.70 11.43L32.70 11.43Q32.93 10.98 33.32 10.71L33.32 10.71L33.32 10.71Q33.71 10.45 34.21 10.31L34.21 10.31L34.21 10.31Q34.70 10.17 35.25 10.17L35.25 10.17L35.25 10.17Q35.99 10.17 36.53 10.37L36.53 10.37L36.53 10.37Q37.06 10.58 37.34 11.13ZM40.67 13.48L40.67 13.48L40.67 13.48Q41.35 13.26 42.30 12.98L42.30 12.98L42.30 12.98Q43.22 12.70 43.45 12.59L43.45 12.59L43.45 12.59Q43.67 12.48 43.67 12.27L43.67 12.27L43.67 12.27Q43.67 11.66 43.35 11.19L43.35 11.19L43.35 11.19Q43.03 10.72 42.40 10.72L42.40 10.72L42.40 10.72Q41.97 10.72 41.63 10.90L41.63 10.90L41.63 10.90Q41.28 11.09 41.07 11.37L41.07 11.37L41.07 11.37Q40.87 11.66 40.73 12.03L40.73 12.03L40.73 12.03Q40.58 12.40 40.53 12.74L40.53 12.74L40.53 12.74Q40.48 13.08 40.48 13.42L40.48 13.42L40.48 13.42Q40.48 13.49 40.58 13.49L40.58 13.49L40.58 13.49Q40.60 13.49 40.63 13.49L40.63 13.49L40.63 13.49Q40.65 13.48 40.67 13.48ZM44.69 15.62L44.90 15.67L45.05 15.94L45.05 15.94Q44.17 16.56 43.39 16.94L43.39 16.94L43.39 16.94Q42.62 17.32 41.84 17.32L41.84 17.32L41.84 17.32Q40.43 17.32 39.66 16.60L39.66 16.60L39.66 16.60Q38.81 15.81 38.81 14.23L38.81 14.23L38.81 14.23Q38.81 13.45 39.05 12.73L39.05 12.73L39.05 12.73Q39.30 12.00 39.77 11.43L39.77 11.43L39.77 11.43Q40.24 10.85 41.00 10.50L41.00 10.50L41.00 10.50Q41.77 10.16 42.72 10.16L42.72 10.16L42.72 10.16Q43.25 10.16 43.71 10.26L43.71 10.26L43.71 10.26Q44.16 10.37 44.55 10.60L44.55 10.60L44.55 10.60Q44.94 10.83 45.17 11.24L45.17 11.24L45.17 11.24Q45.40 11.65 45.40 12.20L45.40 12.20L45.40 12.20Q45.40 12.60 44.99 12.72L44.99 12.72L44.99 12.72Q44.95 12.72 40.48 14.11L40.48 14.11L40.48 14.11Q40.48 14.69 40.71 15.19L40.71 15.19L40.71 15.19Q40.94 15.70 41.43 16.03L41.43 16.03L41.43 16.03Q41.91 16.37 42.56 16.37L42.56 16.37L42.56 16.37Q43.46 16.37 44.69 15.62L44.69 15.62ZM52.56 13.36L52.56 12.84L57.32 12.67L57.32 12.67Q57.25 13.58 57.25 14.31L57.25 14.31L57.25 14.31Q57.25 15.26 57.35 16.58L57.35 16.58L57.35 16.58Q56.04 16.93 55.06 17.11L55.06 17.11L55.06 17.11Q54.07 17.29 53.10 17.29L53.10 17.29L53.10 17.29Q50.92 17.29 49.68 16.14L49.68 16.14L49.68 16.14Q48.25 14.85 48.25 12.41L48.25 12.41L48.25 12.41Q48.25 11.28 48.63 10.27L48.63 10.27L48.63 10.27Q49.01 9.26 49.81 8.52L49.81 8.52L49.81 8.52Q50.59 7.83 51.66 7.50L51.66 7.50L51.66 7.50Q52.73 7.16 53.93 7.16L53.93 7.16L53.93 7.16Q56.70 7.16 57.61 8.90L57.61 8.90L56.25 10.16L56 10.05L56 10.05Q55.86 9.60 55.65 9.23L55.65 9.23L55.65 9.23Q55.45 8.86 55.16 8.53L55.16 8.53L55.16 8.53Q54.87 8.20 54.44 8.02L54.44 8.02L54.44 8.02Q54.01 7.83 53.50 7.83L53.50 7.83L53.50 7.83Q52.79 7.83 52.22 8.11L52.22 8.11L52.22 8.11Q51.65 8.38 51.30 8.81L51.30 8.81L51.30 8.81Q50.95 9.25 50.71 9.83L50.71 9.83L50.71 9.83Q50.48 10.41 50.38 10.98L50.38 10.98L50.38 10.98Q50.29 11.55 50.29 12.15L50.29 12.15L50.29 12.15Q50.29 12.80 50.42 13.41L50.42 13.41L50.42 13.41Q50.54 14.01 50.83 14.59L50.83 14.59L50.83 14.59Q51.12 15.17 51.55 15.60L51.55 15.60L51.55 15.60Q51.99 16.02 52.66 16.28L52.66 16.28L52.66 16.28Q53.33 16.54 54.17 16.54L54.17 16.54L54.17 16.54Q54.82 16.54 55.15 16.50L55.15 16.50L55.15 16.50Q55.28 16.49 55.36 16.41L55.36 16.41L55.36 16.41Q55.45 16.33 55.47 16.16L55.47 16.16L55.47 16.16Q55.50 15.99 55.50 15.86L55.50 15.86L55.50 15.86Q55.51 15.73 55.50 15.45L55.50 15.45L55.50 15.45Q55.49 15.18 55.49 15.05L55.49 15.05L55.49 13.99L55.49 13.99Q55.47 13.88 55.44 13.81L55.44 13.81L55.44 13.81Q55.41 13.73 55.34 13.68L55.34 13.68L55.34 13.68Q55.28 13.62 55.20 13.59L55.20 13.59L55.20 13.59Q55.13 13.55 54.98 13.52L54.98 13.52L54.98 13.52Q54.84 13.49 54.70 13.48L54.70 13.48L54.70 13.48Q54.56 13.47 54.31 13.46L54.31 13.46L54.31 13.46Q54.07 13.45 53.84 13.44L53.84 13.44L53.84 13.44Q53.61 13.43 53.26 13.41L53.26 13.41L53.26 13.41Q52.90 13.38 52.56 13.36L52.56 13.36ZM63.83 10.57L63.83 10.57L65.27 10.09L65.43 10.23L65.43 10.23Q65.37 11.81 65.37 14.05L65.37 14.05L65.37 14.05Q65.37 14.10 65.35 14.31L65.35 14.31L65.35 14.31Q65.34 14.53 65.34 14.69L65.34 14.69L65.34 14.69Q65.34 14.85 65.36 15.08L65.36 15.08L65.36 15.08Q65.39 15.31 65.44 15.46L65.44 15.46L65.44 15.46Q65.50 15.61 65.63 15.72L65.63 15.72L65.63 15.72Q65.75 15.83 65.94 15.83L65.94 15.83L65.94 15.83Q66.23 15.83 66.89 15.44L66.89 15.44L67.03 15.44L67.14 15.72L67.14 15.72Q66.81 16.05 66.63 16.22L66.63 16.22L66.63 16.22Q66.45 16.39 66.11 16.67L66.11 16.67L66.11 16.67Q65.78 16.94 65.50 17.07L65.50 17.07L65.50 17.07Q65.21 17.20 64.96 17.20L64.96 17.20L64.96 17.20Q64.10 17.20 63.95 16.24L63.95 16.24L63.81 16.15L63.81 16.15Q63.72 16.21 63.40 16.38L63.40 16.38L63.40 16.38Q63.08 16.54 62.92 16.62L62.92 16.62L62.92 16.62Q62.77 16.70 62.49 16.83L62.49 16.83L62.49 16.83Q62.20 16.97 62.01 17.03L62.01 17.03L62.01 17.03Q61.82 17.09 61.60 17.14L61.60 17.14L61.60 17.14Q61.37 17.20 61.18 17.20L61.18 17.20L61.18 17.20Q60.31 17.20 59.82 16.74L59.82 16.74L59.82 16.74Q59.75 16.67 59.68 16.59L59.68 16.59L59.68 16.59Q59.62 16.52 59.58 16.41L59.58 16.41L59.58 16.41Q59.54 16.30 59.51 16.21L59.51 16.21L59.51 16.21Q59.48 16.12 59.46 15.96L59.46 15.96L59.46 15.96Q59.45 15.80 59.44 15.70L59.44 15.70L59.44 15.70Q59.42 15.59 59.42 15.38L59.42 15.38L59.42 15.38Q59.42 15.16 59.42 15.04L59.42 15.04L59.42 15.04Q59.42 14.92 59.42 14.65L59.42 14.65L59.42 14.65Q59.42 14.38 59.42 14.23L59.42 14.23L59.42 14.23Q59.42 14.07 59.42 13.76L59.42 13.76L59.42 13.76Q59.43 13.46 59.43 13.32L59.43 13.32L59.43 13.32Q59.43 13.20 59.44 12.97L59.44 12.97L59.44 12.97Q59.44 12.74 59.44 12.62L59.44 12.62L59.44 12.62Q59.44 12.50 59.44 12.30L59.44 12.30L59.44 12.30Q59.43 12.11 59.42 12.00L59.42 12.00L59.42 12.00Q59.40 11.89 59.38 11.74L59.38 11.74L59.38 11.74Q59.36 11.59 59.31 11.52L59.31 11.52L59.31 11.52Q59.27 11.44 59.21 11.36L59.21 11.36L59.21 11.36Q59.16 11.28 59.07 11.25L59.07 11.25L59.07 11.25Q58.99 11.21 58.88 11.21L58.88 11.21L58.88 11.21Q58.63 11.21 58.03 11.59L58.03 11.59L57.83 11.24L57.83 11.24Q58.18 10.98 58.36 10.86L58.36 10.86L58.36 10.86Q58.54 10.73 58.86 10.53L58.86 10.53L58.86 10.53Q59.19 10.33 59.47 10.24L59.47 10.24L59.47 10.24Q59.75 10.14 59.99 10.14L59.99 10.14L59.99 10.14Q60.31 10.14 60.53 10.25L60.53 10.25L60.53 10.25Q60.75 10.36 60.86 10.55L60.86 10.55L60.86 10.55Q60.97 10.75 61.01 10.97L61.01 10.97L61.01 10.97Q61.05 11.19 61.05 11.48L61.05 11.48L61.05 11.48Q61.05 11.73 61.00 12.60L61.00 12.60L61.00 12.60Q60.96 13.46 60.96 13.92L60.96 13.92L60.96 13.92Q60.96 14.39 60.98 14.71L60.98 14.71L60.98 14.71Q61.01 15.03 61.09 15.32L61.09 15.32L61.09 15.32Q61.17 15.62 61.32 15.79L61.32 15.79L61.32 15.79Q61.47 15.96 61.71 16.06L61.71 16.06L61.71 16.06Q61.95 16.17 62.30 16.17L62.30 16.17L62.30 16.17Q62.74 16.17 63.10 16.00L63.10 16.00L63.10 16.00Q63.46 15.83 63.90 15.50L63.90 15.50L63.90 15.50Q63.91 14.95 63.91 13.79L63.91 13.79L63.91 13.79Q63.91 12.11 63.83 10.57ZM67.82 9.05L67.82 9.05L67.82 9.05Q67.55 8.78 67.55 8.39L67.55 8.39L67.55 8.39Q67.55 8.01 67.82 7.74L67.82 7.74L67.82 7.74Q68.09 7.47 68.47 7.47L68.47 7.47L68.47 7.47Q68.84 7.47 69.12 7.74L69.12 7.74L69.12 7.74Q69.39 8.01 69.39 8.39L69.39 8.39L69.39 8.39Q69.39 8.78 69.12 9.05L69.12 9.05L69.12 9.05Q68.84 9.32 68.47 9.32L68.47 9.32L68.47 9.32Q68.09 9.32 67.82 9.05ZM70.78 15.42L70.78 15.42L71.02 15.65L71.02 15.80L71.02 15.80Q69.82 17.27 68.83 17.27L68.83 17.27L68.83 17.27Q68.28 17.27 67.99 16.88L67.99 16.88L67.99 16.88Q67.89 16.75 67.84 16.59L67.84 16.59L67.84 16.59Q67.79 16.43 67.75 16.28L67.75 16.28L67.75 16.28Q67.72 16.13 67.72 15.81L67.72 15.81L67.72 15.81Q67.71 15.50 67.71 15.26L67.71 15.26L67.71 15.26Q67.71 15.01 67.72 14.48L67.72 14.48L67.72 14.48Q67.72 13.95 67.72 13.54L67.72 13.54L67.72 11.89L67.72 11.89Q67.66 11.21 67.24 11.21L67.24 11.21L67.24 11.21Q66.89 11.21 66.27 11.66L66.27 11.66L66.05 11.35L66.05 11.35Q66.46 11.01 66.76 10.80L66.76 10.80L66.76 10.80Q67.07 10.59 67.52 10.39L67.52 10.39L67.52 10.39Q67.98 10.19 68.35 10.19L68.35 10.19L68.35 10.19Q68.87 10.19 69.06 10.51L69.06 10.51L69.06 10.51Q69.15 10.66 69.18 10.88L69.18 10.88L69.18 10.88Q69.22 11.10 69.22 11.68L69.22 11.68L69.22 11.68Q69.22 11.96 69.20 12.53L69.20 12.53L69.20 12.53Q69.18 13.10 69.18 13.38L69.18 13.38L69.18 13.38Q69.18 13.60 69.18 13.91L69.18 13.91L69.18 13.91Q69.17 14.23 69.17 14.41L69.17 14.41L69.17 14.41Q69.17 14.59 69.17 14.83L69.17 14.83L69.17 14.83Q69.17 15.07 69.19 15.21L69.19 15.21L69.19 15.21Q69.20 15.35 69.22 15.52L69.22 15.52L69.22 15.52Q69.25 15.68 69.29 15.77L69.29 15.77L69.29 15.77Q69.34 15.85 69.41 15.93L69.41 15.93L69.41 15.93Q69.47 16.02 69.57 16.05L69.57 16.05L69.57 16.05Q69.66 16.08 69.78 16.08L69.78 16.08L69.78 16.08Q69.94 16.08 70.14 15.96L70.14 15.96L70.14 15.96Q70.34 15.84 70.46 15.73L70.46 15.73L70.46 15.73Q70.58 15.62 70.78 15.42ZM74.87 7.72L75.06 7.59L77.73 7.30L77.86 7.39L77.86 7.39Q77.84 7.66 77.80 8.23L77.80 8.23L77.80 8.23Q77.77 8.79 77.75 8.99L77.75 8.99L77.75 8.99Q77.74 9.18 77.72 9.56L77.72 9.56L77.72 9.56Q77.70 9.95 77.70 10.26L77.70 10.26L77.70 10.26Q77.69 10.58 77.69 10.99L77.69 10.99L77.68 15.09L77.68 15.09Q77.68 15.44 77.80 15.74L77.80 15.74L77.80 15.74Q77.92 16.04 78.18 16.04L78.18 16.04L78.18 16.04Q78.36 16.04 78.66 15.87L78.66 15.87L78.66 15.87Q78.96 15.71 79.17 15.52L79.17 15.52L79.41 15.83L79.41 15.83Q79.02 16.23 78.72 16.50L78.72 16.50L78.72 16.50Q78.42 16.76 77.96 17.00L77.96 17.00L77.96 17.00Q77.50 17.25 77.10 17.25L77.10 17.25L77.10 17.25Q76.67 17.25 76.45 16.94L76.45 16.94L76.45 16.94Q76.23 16.63 76.19 16.18L76.19 16.18L76.19 16.18Q74.68 17.23 73.51 17.23L73.51 17.23L73.51 17.23Q73.01 17.23 72.61 17.05L72.61 17.05L72.61 17.05Q72.21 16.86 71.96 16.58L71.96 16.58L71.96 16.58Q71.70 16.30 71.54 15.91L71.54 15.91L71.54 15.91Q71.37 15.53 71.31 15.16L71.31 15.16L71.31 15.16Q71.24 14.78 71.24 14.39L71.24 14.39L71.24 14.39Q71.24 12.51 72.21 11.33L72.21 11.33L72.21 11.33Q73.19 10.16 74.83 10.16L74.83 10.16L74.83 10.16Q75.61 10.16 76.11 10.33L76.11 10.33L76.21 10.26L76.21 8.96L76.21 8.96Q76.21 8.69 76.15 8.53L76.15 8.53L76.15 8.53Q76.08 8.37 75.92 8.29L75.92 8.29L75.92 8.29Q75.75 8.20 75.57 8.16L75.57 8.16L75.57 8.16Q75.39 8.13 75.04 8.08L75.04 8.08L75.04 8.08Q75.00 8.08 74.98 8.08L74.98 8.08L74.98 8.08Q74.96 8.07 74.93 8.07L74.93 8.07L74.93 8.07Q74.89 8.07 74.87 8.06L74.87 8.06L74.87 7.72ZM76.21 15.51L76.21 15.51L76.21 12.02L76.21 12.02Q76.21 11.26 75.93 10.98L75.93 10.98L75.93 10.98Q75.65 10.71 75.11 10.71L75.11 10.71L75.11 10.71Q74.63 10.71 74.24 10.90L74.24 10.90L74.24 10.90Q73.86 11.10 73.62 11.41L73.62 11.41L73.62 11.41Q73.38 11.72 73.23 12.14L73.23 12.14L73.23 12.14Q73.08 12.56 73.02 12.97L73.02 12.97L73.02 12.97Q72.96 13.37 72.96 13.79L72.96 13.79L72.96 13.79Q72.96 14.13 73.00 14.44L73.00 14.44L73.00 14.44Q73.04 14.75 73.14 15.08L73.14 15.08L73.14 15.08Q73.25 15.42 73.42 15.66L73.42 15.66L73.42 15.66Q73.59 15.90 73.88 16.05L73.88 16.05L73.88 16.05Q74.16 16.21 74.54 16.21L74.54 16.21L74.54 16.21Q75.31 16.21 76.21 15.51ZM81.58 13.48L81.58 13.48L81.58 13.48Q82.26 13.26 83.21 12.98L83.21 12.98L83.21 12.98Q84.13 12.70 84.36 12.59L84.36 12.59L84.36 12.59Q84.59 12.48 84.59 12.27L84.59 12.27L84.59 12.27Q84.59 11.66 84.27 11.19L84.27 11.19L84.27 11.19Q83.95 10.72 83.32 10.72L83.32 10.72L83.32 10.72Q82.89 10.72 82.54 10.90L82.54 10.90L82.54 10.90Q82.20 11.09 81.99 11.37L81.99 11.37L81.99 11.37Q81.78 11.66 81.64 12.03L81.64 12.03L81.64 12.03Q81.50 12.40 81.45 12.74L81.45 12.74L81.45 12.74Q81.40 13.08 81.40 13.42L81.40 13.42L81.40 13.42Q81.40 13.49 81.50 13.49L81.50 13.49L81.50 13.49Q81.51 13.49 81.54 13.49L81.54 13.49L81.54 13.49Q81.57 13.48 81.58 13.48ZM85.60 15.62L85.81 15.67L85.96 15.94L85.96 15.94Q85.08 16.56 84.30 16.94L84.30 16.94L84.30 16.94Q83.53 17.32 82.76 17.32L82.76 17.32L82.76 17.32Q81.35 17.32 80.58 16.60L80.58 16.60L80.58 16.60Q79.72 15.81 79.72 14.23L79.72 14.23L79.72 14.23Q79.72 13.45 79.97 12.73L79.97 12.73L79.97 12.73Q80.21 12.00 80.68 11.43L80.68 11.43L80.68 11.43Q81.15 10.85 81.92 10.50L81.92 10.50L81.92 10.50Q82.68 10.16 83.64 10.16L83.64 10.16L83.64 10.16Q84.16 10.16 84.62 10.26L84.62 10.26L84.62 10.26Q85.07 10.37 85.46 10.60L85.46 10.60L85.46 10.60Q85.85 10.83 86.08 11.24L86.08 11.24L86.08 11.24Q86.31 11.65 86.31 12.20L86.31 12.20L86.31 12.20Q86.31 12.60 85.91 12.72L85.91 12.72L85.91 12.72Q85.87 12.72 81.40 14.11L81.40 14.11L81.40 14.11Q81.40 14.69 81.62 15.19L81.62 15.19L81.62 15.19Q81.85 15.70 82.34 16.03L82.34 16.03L82.34 16.03Q82.82 16.37 83.47 16.37L83.47 16.37L83.47 16.37Q84.37 16.37 85.60 15.62L85.60 15.62Z"></path></g><!----><!----><g data-v-423bf9ae="" id="bd0852cf-24f1-438c-9e89-12efe140a241" fill="white" transform="matrix(5.6980058425006375,0,0,5.6980058425006375,-1.5954197855386383,114.02563954868475)"><path d="M0.28 3.71L0.28 3.71L0.28 3.71Q0.28 3.51 0.66 3.51L0.66 3.51L0.66 3.51Q0.74 3.51 1.20 3.54L1.20 3.54L1.20 3.54Q1.65 3.56 2.20 3.56L2.20 3.56L2.20 3.56Q2.59 3.56 2.98 3.54L2.98 3.54L2.98 3.54Q3.37 3.51 3.40 3.51L3.40 3.51L3.40 3.51Q3.53 3.51 3.56 3.55L3.56 3.55L3.56 3.55Q3.60 3.58 3.60 3.68L3.60 3.68L3.60 3.68Q3.60 3.77 3.30 3.92L3.30 3.92L3.30 3.92Q3.00 4.07 3.00 4.34L3.00 4.34L3.00 4.34Q3.00 4.47 3.05 4.65L3.05 4.65L3.05 4.65Q3.11 4.83 3.28 5.22L3.28 5.22L3.28 5.22Q3.44 5.61 3.63 6.03L3.63 6.03L3.63 6.03Q3.82 6.45 4.21 7.33L4.21 7.33L4.21 7.33Q4.61 8.20 4.98 9.07L4.98 9.07L4.98 9.07Q5.08 9.30 5.27 9.74L5.27 9.74L5.27 9.74Q5.46 10.18 5.58 10.46L5.58 10.46L5.58 10.46Q5.70 10.74 5.84 11.05L5.84 11.05L5.84 11.05Q5.98 11.37 6.07 11.52L6.07 11.52L6.07 11.52Q6.16 11.68 6.20 11.68L6.20 11.68L6.20 11.68Q6.26 11.68 6.65 10.81L6.65 10.81L6.65 10.81Q7.04 9.94 7.35 9.17L7.35 9.17L7.35 9.17Q7.41 9.04 7.48 8.89L7.48 8.89L7.48 8.89Q7.56 8.74 7.59 8.63L7.59 8.63L7.59 8.63Q7.63 8.53 7.63 8.41L7.63 8.41L7.63 8.41Q7.63 8.25 6.79 6.36L6.79 6.36L6.79 6.36Q5.95 4.48 5.71 4.21L5.71 4.21L5.71 4.21Q5.66 4.14 5.60 4.10L5.60 4.10L5.60 4.10Q5.54 4.06 5.50 4.02L5.50 4.02L5.50 4.02Q5.45 3.99 5.41 3.97L5.41 3.97L5.41 3.97Q5.38 3.95 5.32 3.94L5.32 3.94L5.32 3.94Q5.26 3.93 5.24 3.93L5.24 3.93L5.24 3.93Q5.22 3.93 5.16 3.93L5.16 3.93L5.16 3.93Q5.10 3.92 5.08 3.92L5.08 3.92L5.08 3.92Q4.69 3.88 4.61 3.84L4.61 3.84L4.61 3.84Q4.52 3.81 4.52 3.70L4.52 3.70L4.52 3.70Q4.52 3.50 4.93 3.50L4.93 3.50L4.93 3.50Q5.01 3.50 5.47 3.53L5.47 3.53L5.47 3.53Q5.94 3.56 6.47 3.56L6.47 3.56L6.47 3.56Q6.50 3.56 6.85 3.53L6.85 3.53L6.85 3.53Q7.20 3.50 7.39 3.50L7.39 3.50L7.39 3.50Q7.81 3.50 7.81 3.61L7.81 3.61L7.81 3.61Q7.81 3.70 7.66 3.78L7.66 3.78L7.66 3.78Q7.50 3.86 7.36 4.00L7.36 4.00L7.36 4.00Q7.21 4.13 7.21 4.33L7.21 4.33L7.21 4.33Q7.21 4.59 7.64 5.57L7.64 5.57L7.64 5.57Q7.67 5.63 7.83 6.03L7.83 6.03L7.83 6.03Q7.99 6.44 8.12 6.71L8.12 6.71L8.12 6.71Q8.25 6.99 8.30 6.99L8.30 6.99L8.30 6.99Q8.41 6.99 8.86 5.76L8.86 5.76L8.86 5.76Q9.31 4.54 9.31 4.31L9.31 4.31L9.31 4.31Q9.31 4.06 9.10 3.96L9.10 3.96L9.10 3.96Q8.89 3.85 8.68 3.80L8.68 3.80L8.68 3.80Q8.47 3.75 8.47 3.64L8.47 3.64L8.47 3.64Q8.47 3.49 8.78 3.49L8.78 3.49L8.78 3.49Q8.86 3.49 9.20 3.50L9.20 3.50L9.20 3.50Q9.53 3.51 9.67 3.51L9.67 3.51L9.91 3.51L9.91 3.51Q10.11 3.51 10.65 3.47L10.65 3.47L10.78 3.47L10.78 3.47Q10.96 3.47 10.96 3.61L10.96 3.61L10.96 3.61Q10.96 3.75 10.70 3.84L10.70 3.84L10.70 3.84Q10.43 3.92 10.33 4.02L10.33 4.02L10.33 4.02Q10.11 4.24 9.94 4.66L9.94 4.66L9.94 4.66Q9.65 5.38 9.24 6.33L9.24 6.33L9.24 6.33Q8.82 7.31 8.75 7.50L8.75 7.50L8.75 7.50Q8.68 7.70 8.68 7.85L8.68 7.85L8.68 7.85Q8.68 7.97 9.53 9.87L9.53 9.87L9.53 9.87Q10.39 11.77 10.54 11.77L10.54 11.77L10.54 11.77Q10.71 11.77 12.17 8.24L12.17 8.24L12.17 8.24Q13.64 4.70 13.64 4.35L13.64 4.35L13.64 4.35Q13.64 4.13 13.47 4.01L13.47 4.01L13.47 4.01Q13.31 3.89 13.12 3.87L13.12 3.87L13.12 3.87Q12.92 3.85 12.76 3.80L12.76 3.80L12.76 3.80Q12.60 3.75 12.60 3.64L12.60 3.64L12.60 3.64Q12.60 3.54 12.64 3.52L12.64 3.52L12.64 3.52Q12.68 3.50 12.87 3.50L12.87 3.50L12.87 3.50Q12.91 3.50 13.19 3.51L13.19 3.51L13.19 3.51Q13.47 3.51 13.75 3.51L13.75 3.51L13.75 3.51Q14 3.51 14.31 3.50L14.31 3.50L14.31 3.50Q14.63 3.49 14.99 3.49L14.99 3.49L14.99 3.49Q15.27 3.49 15.27 3.68L15.27 3.68L15.27 3.68Q15.27 3.78 15.20 3.84L15.20 3.84L15.20 3.84Q15.12 3.89 14.97 3.98L14.97 3.98L14.97 3.98Q14.81 4.06 14.70 4.17L14.70 4.17L14.70 4.17Q14.63 4.24 14.58 4.31L14.58 4.31L14.58 4.31Q14.53 4.38 14.48 4.49L14.48 4.49L14.48 4.49Q14.42 4.59 14.38 4.66L14.38 4.66L14.38 4.66Q14.35 4.73 14.27 4.91L14.27 4.91L14.27 4.91Q14.20 5.08 14.15 5.18L14.15 5.18L14.15 5.18Q13.08 7.59 11.75 10.58L11.75 10.58L11.75 10.58Q10.68 13.01 10.49 13.41L10.49 13.41L10.49 13.41Q10.29 13.82 10.18 13.82L10.18 13.82L10.18 13.82Q10.11 13.82 10.01 13.64L10.01 13.64L10.01 13.64Q9.91 13.47 9.74 13.05L9.74 13.05L9.74 13.05Q9.56 12.64 9.53 12.57L9.53 12.57L9.53 12.57Q9.39 12.26 9.16 11.72L9.16 11.72L9.16 11.72Q8.93 11.17 8.77 10.79L8.77 10.79L8.77 10.79Q8.61 10.42 8.44 10.02L8.44 10.02L8.44 10.02Q8.27 9.63 8.16 9.43L8.16 9.43L8.16 9.43Q8.05 9.23 8.01 9.23L8.01 9.23L8.01 9.23Q7.87 9.23 7.06 11.16L7.06 11.16L7.06 11.16Q6.26 13.09 6.20 13.31L6.20 13.31L6.20 13.31Q6.19 13.37 6.17 13.43L6.17 13.43L6.17 13.43Q6.15 13.48 6.13 13.52L6.13 13.52L6.13 13.52Q6.12 13.57 6.10 13.61L6.10 13.61L6.10 13.61Q6.09 13.65 6.08 13.68L6.08 13.68L6.08 13.68Q6.06 13.71 6.05 13.73L6.05 13.73L6.05 13.73Q6.05 13.76 6.03 13.78L6.03 13.78L6.03 13.78Q6.02 13.80 6.01 13.82L6.01 13.82L6.01 13.82Q5.99 13.83 5.98 13.84L5.98 13.84L5.98 13.84Q5.96 13.85 5.95 13.85L5.95 13.85L5.95 13.85Q5.94 13.86 5.91 13.86L5.91 13.86L5.91 13.86Q5.78 13.86 5.60 13.46L5.60 13.46L5.60 13.46Q5.42 13.06 4.94 11.89L4.94 11.89L4.94 11.89Q4.47 10.72 3.98 9.65L3.98 9.65L3.98 9.65Q3.16 7.87 2.25 5.63L2.25 5.63L2.25 5.63Q1.99 4.96 1.68 4.57L1.68 4.57L1.68 4.57Q1.37 4.19 1.13 4.09L1.13 4.09L1.13 4.09Q0.90 3.99 0.70 3.98L0.70 3.98L0.70 3.98Q0.50 3.96 0.39 3.92L0.39 3.92L0.39 3.92Q0.28 3.88 0.28 3.71ZM22.82 3.65L22.82 3.65L22.82 3.65Q22.82 3.46 23.21 3.46L23.21 3.46L23.21 3.46Q23.27 3.46 23.39 3.47L23.39 3.47L23.39 3.47Q23.52 3.49 23.59 3.49L23.59 3.49L23.59 3.49Q23.63 3.49 24.91 3.52L24.91 3.52L24.91 3.52Q26.18 3.56 27.01 3.56L27.01 3.56L27.01 3.56Q27.30 3.56 28.45 3.53L28.45 3.53L28.45 3.53Q29.61 3.50 29.81 3.50L29.81 3.50L29.81 3.50Q30.07 3.50 30.07 3.82L30.07 3.82L30.07 3.82Q30.07 3.91 29.99 4.38L29.99 4.38L29.99 4.38Q29.90 4.84 29.90 5.25L29.90 5.25L29.90 5.25Q29.90 5.38 29.83 5.47L29.83 5.47L29.83 5.47Q29.76 5.56 29.68 5.56L29.68 5.56L29.68 5.56Q29.47 5.56 29.47 5.26L29.47 5.26L29.47 5.26Q29.47 4.89 29.23 4.58L29.23 4.58L29.23 4.58Q28.99 4.27 28.64 4.26L28.64 4.26L28.64 4.26Q27.38 4.16 26.71 4.16L26.71 4.16L26.35 4.16L26.35 4.16Q25.62 4.16 25.50 4.26L25.50 4.26L25.50 4.26Q25.38 4.37 25.35 5.01L25.35 5.01L25.35 5.01Q25.30 6.02 25.30 7.35L25.30 7.35L25.30 7.35Q25.30 8.05 25.56 8.06L25.56 8.06L25.91 8.06L26.50 8.06L26.94 8.06L26.94 8.06Q27.78 8.06 28.06 8.01L28.06 8.01L28.06 8.01Q28.34 7.95 28.56 7.80L28.56 7.80L28.56 7.80Q28.83 7.62 28.88 7.28L28.88 7.28L28.88 7.28Q28.92 7.04 29.08 7.04L29.08 7.04L29.08 7.04Q29.20 7.04 29.23 7.08L29.23 7.08L29.23 7.08Q29.26 7.13 29.26 7.27L29.26 7.27L29.26 7.27Q29.26 7.36 29.20 7.91L29.20 7.91L29.20 7.91Q29.15 8.46 29.15 8.74L29.15 8.74L29.15 8.74Q29.15 9.00 29.17 9.24L29.17 9.24L29.17 9.24Q29.19 9.48 29.19 9.59L29.19 9.59L29.19 9.59Q29.19 9.94 29.09 9.94L29.09 9.94L29.09 9.94Q28.88 9.94 28.78 9.60L28.78 9.60L28.78 9.60Q28.59 9.02 28.43 8.92L28.43 8.92L28.43 8.92Q28.14 8.72 27.09 8.72L27.09 8.72L27.09 8.72Q26.67 8.72 26.41 8.72L26.41 8.72L26.41 8.72Q26.15 8.72 26.07 8.71L26.07 8.71L26.07 8.71Q26.00 8.71 25.95 8.71L25.95 8.71L25.95 8.71Q25.90 8.71 25.86 8.71L25.86 8.71L25.86 8.71Q25.28 8.71 25.28 8.97L25.28 8.97L25.28 8.97Q25.28 9.38 25.27 9.99L25.27 9.99L25.27 9.99Q25.26 10.60 25.26 10.99L25.26 10.99L25.26 11.55L25.26 11.55Q25.26 12.56 25.59 12.66L25.59 12.66L25.59 12.66Q25.94 12.77 26.19 12.77L26.19 12.77L26.19 12.77Q27.24 12.77 28.04 12.67L28.04 12.67L28.04 12.67Q28.83 12.57 29.23 12.42L29.23 12.42L29.23 12.42Q29.62 12.28 29.89 12.10L29.89 12.10L29.89 12.10Q30.16 11.93 30.23 11.78L30.23 11.78L30.23 11.78Q30.31 11.63 30.39 11.54L30.39 11.54L30.39 11.54Q30.46 11.44 30.55 11.44L30.55 11.44L30.55 11.44Q30.72 11.44 30.72 11.68L30.72 11.68L30.72 11.68Q30.72 12.28 30.11 12.89L30.11 12.89L30.11 12.89Q29.51 13.51 29.06 13.51L29.06 13.51L29.06 13.51Q28.06 13.51 26.79 13.44L26.79 13.44L26.79 13.44Q25.52 13.37 25.21 13.37L25.21 13.37L25.21 13.37Q24.82 13.37 24.23 13.43L24.23 13.43L24.23 13.43Q23.65 13.50 23.31 13.50L23.31 13.50L23.31 13.50Q23.02 13.50 23.02 13.36L23.02 13.36L23.02 13.36Q23.02 13.23 23.02 13.19L23.02 13.19L23.02 13.19Q23.02 13.15 23.06 13.12L23.06 13.12L23.06 13.12Q23.10 13.09 23.15 13.08L23.15 13.08L23.15 13.08Q23.20 13.08 23.33 13.03L23.33 13.03L23.33 13.03Q23.46 12.99 23.62 12.92L23.62 12.92L23.62 12.92Q23.95 12.75 24.06 12.26L24.06 12.26L24.06 12.26Q24.16 11.77 24.16 10.21L24.16 10.21L24.16 8.47L24.16 8.47Q24.16 8.09 24.18 7.29L24.18 7.29L24.18 7.29Q24.21 6.50 24.21 6.05L24.21 6.05L24.21 6.05Q24.21 5.67 24.18 4.77L24.18 4.77L24.18 4.77Q24.16 4.37 23.83 4.14L23.83 4.14L23.83 4.14Q23.49 3.92 23.04 3.91L23.04 3.91L23.04 3.91Q22.82 3.91 22.82 3.65ZM48.80 10.82L48.80 10.82L48.80 10.82Q48.80 10.53 49.00 10.53L49.00 10.53L49.00 10.53Q49.18 10.53 49.22 10.67L49.22 10.67L49.22 10.67Q49.36 11.00 49.48 11.25L49.48 11.25L49.48 11.25Q49.60 11.49 49.87 11.85L49.87 11.85L49.87 11.85Q50.13 12.21 50.44 12.44L50.44 12.44L50.44 12.44Q50.75 12.67 51.23 12.84L51.23 12.84L51.23 12.84Q51.72 13.01 52.29 13.01L52.29 13.01L52.29 13.01Q53.34 13.01 53.98 12.45L53.98 12.45L53.98 12.45Q54.61 11.90 54.61 11.00L54.61 11.00L54.61 11.00Q54.61 10.35 54.18 9.90L54.18 9.90L54.18 9.90Q53.75 9.46 53.19 9.27L53.19 9.27L53.19 9.27Q52.63 9.09 51.76 8.77L51.76 8.77L51.76 8.77Q50.90 8.46 50.36 8.13L50.36 8.13L50.36 8.13Q49.08 7.38 49.08 6.08L49.08 6.08L49.08 6.08Q49.08 4.83 49.99 4.08L49.99 4.08L49.99 4.08Q50.89 3.33 52.33 3.33L52.33 3.33L52.33 3.33Q52.86 3.33 53.60 3.56L53.60 3.56L53.60 3.56Q54.33 3.79 54.35 3.79L54.35 3.79L54.35 3.79Q54.39 3.79 54.50 3.74L54.50 3.74L54.50 3.74Q54.61 3.68 54.67 3.68L54.67 3.68L54.67 3.68Q54.85 3.68 54.88 3.79L54.88 3.79L54.88 3.79Q55.17 5.49 55.17 5.70L55.17 5.70L55.17 5.70Q55.17 6.09 54.98 6.09L54.98 6.09L54.98 6.09Q54.85 6.09 54.78 5.89L54.78 5.89L54.78 5.89Q54.61 5.49 54.45 5.24L54.45 5.24L54.45 5.24Q54.29 4.98 54.22 4.91L54.22 4.91L54.22 4.91Q54.15 4.84 53.86 4.58L53.86 4.58L53.86 4.58Q53.10 3.91 52.02 3.91L52.02 3.91L52.02 3.91Q51.16 3.91 50.57 4.33L50.57 4.33L50.57 4.33Q49.98 4.75 49.98 5.46L49.98 5.46L49.98 5.46Q49.98 6.09 50.32 6.50L50.32 6.50L50.32 6.50Q50.67 6.90 51.24 7.13L51.24 7.13L51.24 7.13Q51.81 7.35 52.44 7.55L52.44 7.55L52.44 7.55Q53.07 7.74 53.78 8.09L53.78 8.09L53.78 8.09Q54.49 8.44 54.95 8.93L54.95 8.93L54.95 8.93Q55.51 9.53 55.51 10.43L55.51 10.43L55.51 10.43Q55.51 11.90 54.57 12.76L54.57 12.76L54.57 12.76Q53.63 13.62 52.25 13.62L52.25 13.62L52.25 13.62Q51.28 13.62 50.69 13.52L50.69 13.52L50.69 13.52Q50.11 13.41 49.49 13.09L49.49 13.09L49.49 13.09Q49.31 12.98 49.06 12.00L49.06 12.00L49.06 12.00Q48.80 11.02 48.80 10.82ZM63.60 3.68L63.60 3.68L63.60 3.68Q63.60 3.61 63.62 3.58L63.62 3.58L63.62 3.58Q63.63 3.56 63.70 3.53L63.70 3.53L63.70 3.53Q63.77 3.50 63.92 3.50L63.92 3.50L63.92 3.50Q64.08 3.50 64.57 3.53L64.57 3.53L64.57 3.53Q65.06 3.56 65.51 3.56L65.51 3.56L65.51 3.56Q65.79 3.56 66.02 3.54L66.02 3.54L66.02 3.54Q66.25 3.53 66.82 3.53L66.82 3.53L66.82 3.53Q67.12 3.53 67.12 3.72L67.12 3.72L67.12 3.72Q67.12 3.85 67.02 3.88L67.02 3.88L67.02 3.88Q66.92 3.91 66.77 3.92L66.77 3.92L66.77 3.92Q66.63 3.93 66.48 4.02L66.48 4.02L66.48 4.02Q66.33 4.10 66.23 4.43L66.23 4.43L66.23 4.43Q66.14 4.76 66.14 5.32L66.14 5.32L66.14 5.71L66.14 5.71Q66.14 6.37 66.13 7.37L66.13 7.37L66.13 7.37Q66.12 8.37 66.12 8.74L66.12 8.74L66.12 8.74Q66.12 9.17 66.13 9.39L66.13 9.39L66.13 9.39Q66.14 9.62 66.16 10.04L66.16 10.04L66.16 10.04Q66.19 10.47 66.24 10.72L66.24 10.72L66.24 10.72Q66.29 10.96 66.40 11.32L66.40 11.32L66.40 11.32Q66.51 11.68 66.67 11.89L66.67 11.89L66.67 11.89Q66.84 12.10 67.08 12.35L67.08 12.35L67.08 12.35Q67.33 12.60 67.65 12.73L67.65 12.73L67.65 12.73Q67.97 12.87 68.40 12.96L68.40 12.96L68.40 12.96Q68.84 13.05 69.37 13.05L69.37 13.05L69.37 13.05Q69.82 13.05 70.07 13.03L70.07 13.03L70.07 13.03Q70.32 13.02 70.76 12.94L70.76 12.94L70.76 12.94Q71.20 12.87 71.46 12.72L71.46 12.72L71.46 12.72Q71.72 12.57 72.05 12.27L72.05 12.27L72.05 12.27Q72.38 11.97 72.56 11.54L72.56 11.54L72.56 11.54Q72.74 11.10 72.87 10.43L72.87 10.43L72.87 10.43Q73.00 9.76 73.00 8.90L73.00 8.90L73.00 8.90Q73.00 7.49 72.99 6.75L72.99 6.75L72.99 6.75Q72.98 6.01 72.98 5.94L72.98 5.94L72.98 5.94Q72.98 5.45 72.96 5.17L72.96 5.17L72.96 5.17Q72.94 4.89 72.82 4.55L72.82 4.55L72.82 4.55Q72.70 4.21 72.48 4.06L72.48 4.06L72.48 4.06Q72.34 3.96 72.11 3.93L72.11 3.93L72.11 3.93Q71.89 3.89 71.75 3.87L71.75 3.87L71.75 3.87Q71.61 3.85 71.61 3.75L71.61 3.75L71.61 3.75Q71.61 3.53 71.89 3.53L71.89 3.53L71.89 3.53Q71.97 3.53 72.44 3.54L72.44 3.54L72.44 3.54Q72.90 3.56 72.97 3.56L72.97 3.56L72.97 3.56Q73.30 3.56 73.68 3.54L73.68 3.54L73.68 3.54Q74.06 3.51 74.16 3.51L74.16 3.51L74.16 3.51Q74.45 3.51 74.45 3.70L74.45 3.70L74.45 3.70Q74.45 3.81 74.15 3.98L74.15 3.98L74.15 3.98Q73.85 4.16 73.78 4.30L73.78 4.30L73.78 4.30Q73.63 4.59 73.63 5.22L73.63 5.22L73.63 5.22Q73.63 5.32 73.63 5.62L73.63 5.62L73.63 5.62Q73.64 5.92 73.64 6.16L73.64 6.16L73.64 6.16Q73.64 8.85 73.42 10.28L73.42 10.28L73.42 10.28Q73.19 11.70 72.74 12.36L72.74 12.36L72.74 12.36Q72.28 13.01 71.37 13.40L71.37 13.40L71.37 13.40Q70.63 13.71 69.37 13.71L69.37 13.71L69.37 13.71Q67.03 13.71 66.05 12.81L66.05 12.81L66.05 12.81Q65.28 12.10 65.10 11.09L65.10 11.09L65.10 11.09Q64.92 10.09 64.92 7.64L64.92 7.64L64.92 7.41L64.92 7.41Q64.92 6.86 64.93 6.20L64.93 6.20L64.93 6.20Q64.95 5.54 64.95 5.39L64.95 5.39L64.95 5.39Q64.95 4.62 64.76 4.33L64.76 4.33L64.76 4.33Q64.58 4.05 63.91 3.95L63.91 3.95L63.91 3.95Q63.60 3.91 63.60 3.68ZM82.35 8.83L82.35 8.83L82.35 8.83Q82.35 7.31 82.96 6.09L82.96 6.09L82.96 6.09Q83.57 4.87 84.83 4.12L84.83 4.12L84.83 4.12Q86.09 3.37 87.82 3.37L87.82 3.37L87.82 3.37Q88.49 3.37 89.08 3.48L89.08 3.48L89.08 3.48Q89.67 3.58 90.05 3.72L90.05 3.72L90.05 3.72Q90.43 3.86 90.71 4.01L90.71 4.01L90.71 4.01Q90.99 4.16 91.13 4.26L91.13 4.26L91.13 4.26Q91.28 4.37 91.31 4.37L91.31 4.37L91.31 4.37Q91.35 4.37 91.50 4.26L91.50 4.26L91.50 4.26Q91.64 4.16 91.70 4.16L91.70 4.16L91.70 4.16Q91.91 4.16 91.91 4.44L91.91 4.44L91.91 4.44Q91.92 4.84 91.97 5.29L91.97 5.29L91.97 5.29Q92.02 5.74 92.06 6.03L92.06 6.03L92.06 6.03Q92.11 6.33 92.11 6.38L92.11 6.38L92.11 6.38Q92.11 6.62 91.94 6.62L91.94 6.62L91.94 6.62Q91.77 6.62 91.70 6.45L91.70 6.45L91.70 6.45Q91.21 5.39 90.06 4.65L90.06 4.65L90.06 4.65Q88.91 3.92 87.70 3.92L87.70 3.92L87.70 3.92Q85.95 3.92 84.80 5.02L84.80 5.02L84.80 5.02Q83.66 6.12 83.66 8.06L83.66 8.06L83.66 8.06Q83.66 9.35 84.14 10.49L84.14 10.49L84.14 10.49Q84.62 11.62 85.59 12.36L85.59 12.36L85.59 12.36Q86.56 13.10 87.82 13.10L87.82 13.10L87.82 13.10Q88.90 13.10 89.78 12.61L89.78 12.61L89.78 12.61Q90.65 12.12 90.75 11.49L90.75 11.49L90.75 11.49Q90.79 11.16 90.79 9.73L90.79 9.73L90.79 9.73Q90.79 9.18 90.55 8.95L90.55 8.95L90.55 8.95Q90.38 8.78 89.94 8.72L89.94 8.72L89.94 8.72Q89.52 8.68 89.45 8.55L89.45 8.55L89.45 8.55Q89.42 8.50 89.42 8.41L89.42 8.41L89.42 8.41Q89.42 8.26 89.67 8.26L89.67 8.26L89.67 8.26Q89.85 8.26 90.45 8.29L90.45 8.29L90.45 8.29Q91.06 8.33 91.22 8.33L91.22 8.33L91.22 8.33Q91.50 8.33 91.83 8.32L91.83 8.32L91.83 8.32Q92.15 8.32 92.34 8.32L92.34 8.32L92.55 8.32L92.55 8.32Q92.78 8.32 92.78 8.44L92.78 8.44L92.78 8.44Q92.78 8.54 92.42 8.69L92.42 8.69L92.42 8.69Q92.06 8.85 92.02 9.09L92.02 9.09L92.02 9.09Q91.92 9.69 91.92 10.65L91.92 10.65L91.92 10.65Q91.92 11.07 91.94 11.40L91.94 11.40L91.94 11.40Q91.95 11.72 91.96 11.85L91.96 11.85L91.96 11.85Q91.97 11.98 91.98 12.08L91.98 12.08L91.98 12.08Q91.99 12.18 91.99 12.22L91.99 12.22L91.99 12.22Q91.99 12.29 91.89 12.33L91.89 12.33L91.89 12.33Q91.78 12.36 91.55 12.42L91.55 12.42L91.55 12.42Q91.31 12.49 91.11 12.60L91.11 12.60L91.01 12.66L91.01 12.66Q90.92 12.73 90.82 12.78L90.82 12.78L90.82 12.78Q90.72 12.84 90.56 12.92L90.56 12.92L90.56 12.92Q90.40 13.01 90.23 13.09L90.23 13.09L90.23 13.09Q90.06 13.17 89.85 13.26L89.85 13.26L89.85 13.26Q89.64 13.36 89.42 13.43L89.42 13.43L89.42 13.43Q89.19 13.50 88.96 13.55L88.96 13.55L88.96 13.55Q88.72 13.61 88.46 13.64L88.46 13.64L88.46 13.64Q88.20 13.68 87.95 13.68L87.95 13.68L87.95 13.68Q86.42 13.68 85.30 13.26L85.30 13.26L85.30 13.26Q84.17 12.85 83.55 12.14L83.55 12.14L83.55 12.14Q82.94 11.44 82.64 10.61L82.64 10.61L82.64 10.61Q82.35 9.79 82.35 8.83ZM100.80 8.83L100.80 8.83L100.80 8.83Q100.80 7.31 101.41 6.09L101.41 6.09L101.41 6.09Q102.02 4.87 103.28 4.12L103.28 4.12L103.28 4.12Q104.54 3.37 106.27 3.37L106.27 3.37L106.27 3.37Q106.95 3.37 107.53 3.48L107.53 3.48L107.53 3.48Q108.12 3.58 108.50 3.72L108.50 3.72L108.50 3.72Q108.88 3.86 109.16 4.01L109.16 4.01L109.16 4.01Q109.44 4.16 109.58 4.26L109.58 4.26L109.58 4.26Q109.73 4.37 109.76 4.37L109.76 4.37L109.76 4.37Q109.80 4.37 109.95 4.26L109.95 4.26L109.95 4.26Q110.10 4.16 110.15 4.16L110.15 4.16L110.15 4.16Q110.36 4.16 110.36 4.44L110.36 4.44L110.36 4.44Q110.38 4.84 110.42 5.29L110.42 5.29L110.42 5.29Q110.47 5.74 110.52 6.03L110.52 6.03L110.52 6.03Q110.56 6.33 110.56 6.38L110.56 6.38L110.56 6.38Q110.56 6.62 110.39 6.62L110.39 6.62L110.39 6.62Q110.22 6.62 110.15 6.45L110.15 6.45L110.15 6.45Q109.66 5.39 108.51 4.65L108.51 4.65L108.51 4.65Q107.37 3.92 106.15 3.92L106.15 3.92L106.15 3.92Q104.40 3.92 103.26 5.02L103.26 5.02L103.26 5.02Q102.12 6.12 102.12 8.06L102.12 8.06L102.12 8.06Q102.12 9.35 102.59 10.49L102.59 10.49L102.59 10.49Q103.07 11.62 104.04 12.36L104.04 12.36L104.04 12.36Q105.01 13.10 106.27 13.10L106.27 13.10L106.27 13.10Q107.35 13.10 108.23 12.61L108.23 12.61L108.23 12.61Q109.10 12.12 109.20 11.49L109.20 11.49L109.20 11.49Q109.24 11.16 109.24 9.73L109.24 9.73L109.24 9.73Q109.24 9.18 109.00 8.95L109.00 8.95L109.00 8.95Q108.84 8.78 108.39 8.72L108.39 8.72L108.39 8.72Q107.97 8.68 107.90 8.55L107.90 8.55L107.90 8.55Q107.87 8.50 107.87 8.41L107.87 8.41L107.87 8.41Q107.87 8.26 108.12 8.26L108.12 8.26L108.12 8.26Q108.30 8.26 108.91 8.29L108.91 8.29L108.91 8.29Q109.51 8.33 109.68 8.33L109.68 8.33L109.68 8.33Q109.96 8.33 110.28 8.32L110.28 8.32L110.28 8.32Q110.60 8.32 110.80 8.32L110.80 8.32L111.01 8.32L111.01 8.32Q111.23 8.32 111.23 8.44L111.23 8.44L111.23 8.44Q111.23 8.54 110.87 8.69L110.87 8.69L110.87 8.69Q110.52 8.85 110.47 9.09L110.47 9.09L110.47 9.09Q110.38 9.69 110.38 10.65L110.38 10.65L110.38 10.65Q110.38 11.07 110.39 11.40L110.39 11.40L110.39 11.40Q110.40 11.72 110.41 11.85L110.41 11.85L110.41 11.85Q110.42 11.98 110.43 12.08L110.43 12.08L110.43 12.08Q110.45 12.18 110.45 12.22L110.45 12.22L110.45 12.22Q110.45 12.29 110.34 12.33L110.34 12.33L110.34 12.33Q110.24 12.36 110.00 12.42L110.00 12.42L110.00 12.42Q109.76 12.49 109.56 12.60L109.56 12.60L109.47 12.66L109.47 12.66Q109.37 12.73 109.27 12.78L109.27 12.78L109.27 12.78Q109.17 12.84 109.01 12.92L109.01 12.92L109.01 12.92Q108.85 13.01 108.68 13.09L108.68 13.09L108.68 13.09Q108.51 13.17 108.30 13.26L108.30 13.26L108.30 13.26Q108.09 13.36 107.87 13.43L107.87 13.43L107.87 13.43Q107.65 13.50 107.41 13.55L107.41 13.55L107.41 13.55Q107.17 13.61 106.91 13.64L106.91 13.64L106.91 13.64Q106.65 13.68 106.40 13.68L106.40 13.68L106.40 13.68Q104.87 13.68 103.75 13.26L103.75 13.26L103.75 13.26Q102.62 12.85 102.00 12.14L102.00 12.14L102.00 12.14Q101.39 11.44 101.09 10.61L101.09 10.61L101.09 10.61Q100.80 9.79 100.80 8.83ZM118.92 3.65L118.92 3.65L118.92 3.65Q118.92 3.46 119.31 3.46L119.31 3.46L119.31 3.46Q119.36 3.46 119.49 3.47L119.49 3.47L119.49 3.47Q119.62 3.49 119.69 3.49L119.69 3.49L119.69 3.49Q119.73 3.49 121.00 3.52L121.00 3.52L121.00 3.52Q122.28 3.56 123.10 3.56L123.10 3.56L123.10 3.56Q123.40 3.56 124.55 3.53L124.55 3.53L124.55 3.53Q125.71 3.50 125.90 3.50L125.90 3.50L125.90 3.50Q126.17 3.50 126.17 3.82L126.17 3.82L126.17 3.82Q126.17 3.91 126.08 4.38L126.08 4.38L126.08 4.38Q126 4.84 126 5.25L126 5.25L126 5.25Q126 5.38 125.93 5.47L125.93 5.47L125.93 5.47Q125.86 5.56 125.78 5.56L125.78 5.56L125.78 5.56Q125.57 5.56 125.57 5.26L125.57 5.26L125.57 5.26Q125.57 4.89 125.33 4.58L125.33 4.58L125.33 4.58Q125.09 4.27 124.74 4.26L124.74 4.26L124.74 4.26Q123.48 4.16 122.81 4.16L122.81 4.16L122.44 4.16L122.44 4.16Q121.72 4.16 121.60 4.26L121.60 4.26L121.60 4.26Q121.48 4.37 121.45 5.01L121.45 5.01L121.45 5.01Q121.39 6.02 121.39 7.35L121.39 7.35L121.39 7.35Q121.39 8.05 121.66 8.06L121.66 8.06L122.01 8.06L122.60 8.06L123.03 8.06L123.03 8.06Q123.87 8.06 124.15 8.01L124.15 8.01L124.15 8.01Q124.43 7.95 124.66 7.80L124.66 7.80L124.66 7.80Q124.92 7.62 124.98 7.28L124.98 7.28L124.98 7.28Q125.02 7.04 125.17 7.04L125.17 7.04L125.17 7.04Q125.30 7.04 125.33 7.08L125.33 7.08L125.33 7.08Q125.36 7.13 125.36 7.27L125.36 7.27L125.36 7.27Q125.36 7.36 125.30 7.91L125.30 7.91L125.30 7.91Q125.24 8.46 125.24 8.74L125.24 8.74L125.24 8.74Q125.24 9.00 125.27 9.24L125.27 9.24L125.27 9.24Q125.29 9.48 125.29 9.59L125.29 9.59L125.29 9.59Q125.29 9.94 125.19 9.94L125.19 9.94L125.19 9.94Q124.98 9.94 124.88 9.60L124.88 9.60L124.88 9.60Q124.68 9.02 124.53 8.92L124.53 8.92L124.53 8.92Q124.24 8.72 123.19 8.72L123.19 8.72L123.19 8.72Q122.77 8.72 122.51 8.72L122.51 8.72L122.51 8.72Q122.25 8.72 122.17 8.71L122.17 8.71L122.17 8.71Q122.09 8.71 122.05 8.71L122.05 8.71L122.05 8.71Q122.00 8.71 121.95 8.71L121.95 8.71L121.95 8.71Q121.38 8.71 121.38 8.97L121.38 8.97L121.38 8.97Q121.38 9.38 121.37 9.99L121.37 9.99L121.37 9.99Q121.35 10.60 121.35 10.99L121.35 10.99L121.35 11.55L121.35 11.55Q121.35 12.56 121.69 12.66L121.69 12.66L121.69 12.66Q122.04 12.77 122.29 12.77L122.29 12.77L122.29 12.77Q123.34 12.77 124.13 12.67L124.13 12.67L124.13 12.67Q124.92 12.57 125.32 12.42L125.32 12.42L125.32 12.42Q125.72 12.28 125.99 12.10L125.99 12.10L125.99 12.10Q126.25 11.93 126.33 11.78L126.33 11.78L126.33 11.78Q126.41 11.63 126.48 11.54L126.48 11.54L126.48 11.54Q126.56 11.44 126.64 11.44L126.64 11.44L126.64 11.44Q126.81 11.44 126.81 11.68L126.81 11.68L126.81 11.68Q126.81 12.28 126.21 12.89L126.21 12.89L126.21 12.89Q125.61 13.51 125.16 13.51L125.16 13.51L125.16 13.51Q124.15 13.51 122.88 13.44L122.88 13.44L122.88 13.44Q121.62 13.37 121.31 13.37L121.31 13.37L121.31 13.37Q120.92 13.37 120.33 13.43L120.33 13.43L120.33 13.43Q119.74 13.50 119.41 13.50L119.41 13.50L119.41 13.50Q119.11 13.50 119.11 13.36L119.11 13.36L119.11 13.36Q119.11 13.23 119.11 13.19L119.11 13.19L119.11 13.19Q119.11 13.15 119.15 13.12L119.15 13.12L119.15 13.12Q119.20 13.09 119.24 13.08L119.24 13.08L119.24 13.08Q119.29 13.08 119.43 13.03L119.43 13.03L119.43 13.03Q119.56 12.99 119.71 12.92L119.71 12.92L119.71 12.92Q120.05 12.75 120.16 12.26L120.16 12.26L120.16 12.26Q120.26 11.77 120.26 10.21L120.26 10.21L120.26 8.47L120.26 8.47Q120.26 8.09 120.28 7.29L120.28 7.29L120.28 7.29Q120.30 6.50 120.30 6.05L120.30 6.05L120.30 6.05Q120.30 5.67 120.27 4.77L120.27 4.77L120.27 4.77Q120.26 4.37 119.92 4.14L119.92 4.14L119.92 4.14Q119.59 3.92 119.14 3.91L119.14 3.91L119.14 3.91Q118.92 3.91 118.92 3.65ZM134.92 10.82L134.92 10.82L134.92 10.82Q134.92 10.53 135.11 10.53L135.11 10.53L135.11 10.53Q135.30 10.53 135.34 10.67L135.34 10.67L135.34 10.67Q135.48 11.00 135.60 11.25L135.60 11.25L135.60 11.25Q135.72 11.49 135.98 11.85L135.98 11.85L135.98 11.85Q136.25 12.21 136.56 12.44L136.56 12.44L136.56 12.44Q136.86 12.67 137.35 12.84L137.35 12.84L137.35 12.84Q137.83 13.01 138.40 13.01L138.40 13.01L138.40 13.01Q139.45 13.01 140.09 12.45L140.09 12.45L140.09 12.45Q140.73 11.90 140.73 11.00L140.73 11.00L140.73 11.00Q140.73 10.35 140.29 9.90L140.29 9.90L140.29 9.90Q139.86 9.46 139.30 9.27L139.30 9.27L139.30 9.27Q138.74 9.09 137.88 8.77L137.88 8.77L137.88 8.77Q137.02 8.46 136.47 8.13L136.47 8.13L136.47 8.13Q135.20 7.38 135.20 6.08L135.20 6.08L135.20 6.08Q135.20 4.83 136.10 4.08L136.10 4.08L136.10 4.08Q137.00 3.33 138.45 3.33L138.45 3.33L138.45 3.33Q138.98 3.33 139.71 3.56L139.71 3.56L139.71 3.56Q140.45 3.79 140.46 3.79L140.46 3.79L140.46 3.79Q140.50 3.79 140.62 3.74L140.62 3.74L140.62 3.74Q140.73 3.68 140.78 3.68L140.78 3.68L140.78 3.68Q140.97 3.68 140.99 3.79L140.99 3.79L140.99 3.79Q141.29 5.49 141.29 5.70L141.29 5.70L141.29 5.70Q141.29 6.09 141.09 6.09L141.09 6.09L141.09 6.09Q140.97 6.09 140.90 5.89L140.90 5.89L140.90 5.89Q140.73 5.49 140.57 5.24L140.57 5.24L140.57 5.24Q140.41 4.98 140.34 4.91L140.34 4.91L140.34 4.91Q140.27 4.84 139.97 4.58L139.97 4.58L139.97 4.58Q139.22 3.91 138.14 3.91L138.14 3.91L138.14 3.91Q137.27 3.91 136.68 4.33L136.68 4.33L136.68 4.33Q136.09 4.75 136.09 5.46L136.09 5.46L136.09 5.46Q136.09 6.09 136.44 6.50L136.44 6.50L136.44 6.50Q136.78 6.90 137.35 7.13L137.35 7.13L137.35 7.13Q137.93 7.35 138.56 7.55L138.56 7.55L138.56 7.55Q139.19 7.74 139.89 8.09L139.89 8.09L139.89 8.09Q140.60 8.44 141.06 8.93L141.06 8.93L141.06 8.93Q141.62 9.53 141.62 10.43L141.62 10.43L141.62 10.43Q141.62 11.90 140.69 12.76L140.69 12.76L140.69 12.76Q139.75 13.62 138.36 13.62L138.36 13.62L138.36 13.62Q137.40 13.62 136.81 13.52L136.81 13.52L136.81 13.52Q136.22 13.41 135.60 13.09L135.60 13.09L135.60 13.09Q135.42 12.98 135.17 12.00L135.17 12.00L135.17 12.00Q134.92 11.02 134.92 10.82ZM149.72 5.32L149.72 5.32L149.72 5.32Q149.72 4.76 149.86 3.88L149.86 3.88L149.86 3.88Q149.86 3.85 149.86 3.78L149.86 3.78L149.86 3.78Q149.87 3.71 149.88 3.69L149.88 3.69L149.88 3.69Q149.88 3.67 149.89 3.62L149.89 3.62L149.89 3.62Q149.90 3.57 149.91 3.55L149.91 3.55L149.91 3.55Q149.93 3.53 149.95 3.49L149.95 3.49L149.95 3.49Q149.97 3.46 150.00 3.44L150.00 3.44L150.00 3.44Q150.02 3.43 150.07 3.42L150.07 3.42L150.07 3.42Q150.11 3.40 150.16 3.39L150.16 3.39L150.16 3.39Q150.22 3.39 150.29 3.39L150.29 3.39L150.29 3.39Q150.51 3.39 151.47 3.44L151.47 3.44L151.47 3.44Q152.43 3.50 154.24 3.50L154.24 3.50L154.24 3.50Q157.32 3.50 158.55 3.43L158.55 3.43L158.55 3.43Q158.56 3.43 158.60 3.42L158.60 3.42L158.60 3.42Q158.63 3.42 158.65 3.42L158.65 3.42L158.65 3.42Q158.80 3.42 158.86 3.50L158.86 3.50L158.86 3.50Q158.91 3.58 158.91 3.65L158.91 3.65L158.91 3.65Q158.91 3.75 158.96 4.24L158.96 4.24L158.96 4.24Q159.00 4.73 159.00 4.79L159.00 4.79L159.00 4.79Q159.00 5.14 158.96 5.23L158.96 5.23L158.96 5.23Q158.91 5.32 158.77 5.32L158.77 5.32L158.77 5.32Q158.66 5.32 158.62 5.15L158.62 5.15L158.62 5.15Q158.51 4.75 158.42 4.60L158.42 4.60L158.42 4.60Q158.34 4.45 158.06 4.34L158.06 4.34L158.06 4.34Q157.78 4.23 157.21 4.23L157.21 4.23L155.39 4.23L155.39 4.23Q155.05 4.23 154.97 4.36L154.97 4.36L154.97 4.36Q154.90 4.49 154.90 5.12L154.90 5.12L154.90 5.81L154.90 5.81Q154.90 7.69 154.87 9.11L154.87 9.11L154.87 9.11Q154.85 10.54 154.85 10.93L154.85 10.93L154.85 10.93Q154.85 11.13 154.85 11.43L154.85 11.43L154.85 11.43Q154.84 11.73 154.84 11.84L154.84 11.84L154.84 11.84Q154.84 12.45 155.04 12.64L155.04 12.64L155.04 12.64Q155.22 12.81 155.44 12.90L155.44 12.90L155.44 12.90Q155.67 12.99 155.83 13.01L155.83 13.01L155.83 13.01Q155.99 13.02 156.10 13.08L156.10 13.08L156.10 13.08Q156.21 13.13 156.21 13.26L156.21 13.26L156.21 13.26Q156.21 13.41 156.14 13.45L156.14 13.45L156.14 13.45Q156.07 13.50 155.88 13.50L155.88 13.50L155.88 13.50Q155.71 13.50 155.13 13.44L155.13 13.44L155.13 13.44Q154.56 13.38 154.32 13.38L154.32 13.38L154.32 13.38Q154.15 13.38 153.64 13.43L153.64 13.43L153.64 13.43Q153.13 13.48 152.89 13.48L152.89 13.48L152.89 13.48Q152.38 13.48 152.38 13.26L152.38 13.26L152.38 13.26Q152.38 13.12 152.46 13.07L152.46 13.07L152.46 13.07Q152.54 13.02 152.79 12.98L152.79 12.98L152.79 12.98Q153.03 12.95 153.10 12.94L153.10 12.94L153.10 12.94Q153.58 12.82 153.64 12.38L153.64 12.38L153.64 12.38Q153.78 11.14 153.78 7.08L153.78 7.08L153.76 4.58L153.76 4.58Q153.76 4.31 153.61 4.25L153.61 4.25L153.61 4.25Q153.45 4.19 152.70 4.19L152.70 4.19L152.70 4.19Q151.72 4.19 151.22 4.24L151.22 4.24L151.22 4.24Q150.72 4.30 150.64 4.35L150.64 4.35L150.64 4.35Q150.56 4.40 150.44 4.54L150.44 4.54L150.44 4.54Q150.32 4.70 150.24 4.91L150.24 4.91L150.24 4.91Q150.16 5.11 150.14 5.24L150.14 5.24L150.14 5.24Q150.12 5.38 150.06 5.47L150.06 5.47L150.06 5.47Q150.00 5.56 149.87 5.56L149.87 5.56L149.87 5.56Q149.72 5.56 149.72 5.32ZM176.54 3.81L176.54 3.81L176.54 3.81Q176.54 3.65 176.70 3.61L176.70 3.61L176.70 3.61Q176.86 3.57 177.41 3.57L177.41 3.57L177.41 3.57Q177.49 3.57 177.79 3.58L177.79 3.58L177.79 3.58Q178.09 3.60 178.22 3.60L178.22 3.60L178.22 3.60Q178.37 3.60 178.79 3.59L178.79 3.59L178.79 3.59Q179.20 3.58 179.41 3.58L179.41 3.58L179.41 3.58Q180.11 3.58 180.11 3.75L180.11 3.75L180.11 3.75Q180.11 3.91 179.82 4.01L179.82 4.01L179.82 4.01Q179.52 4.12 179.52 4.24L179.52 4.24L179.52 4.24Q179.52 4.38 179.61 4.61L179.61 4.61L179.61 4.61Q179.70 4.83 179.79 4.97L179.79 4.97L179.79 4.97Q179.89 5.11 180.07 5.38L180.07 5.38L180.07 5.38Q180.25 5.64 180.28 5.70L180.28 5.70L180.28 5.70Q180.75 6.45 181.26 7.14L181.26 7.14L181.26 7.14Q181.78 7.83 181.85 7.83L181.85 7.83L181.85 7.83Q181.93 7.83 182.06 7.66L182.06 7.66L182.06 7.66Q182.18 7.50 182.41 7.13L182.41 7.13L182.41 7.13Q182.63 6.75 182.78 6.52L182.78 6.52L182.78 6.52Q182.83 6.45 182.99 6.22L182.99 6.22L182.99 6.22Q183.15 5.98 183.21 5.88L183.21 5.88L183.21 5.88Q183.27 5.78 183.40 5.58L183.40 5.58L183.40 5.58Q183.53 5.38 183.58 5.27L183.58 5.27L183.58 5.27Q183.64 5.17 183.72 5.02L183.72 5.02L183.72 5.02Q183.79 4.87 183.82 4.77L183.82 4.77L183.82 4.77Q183.85 4.68 183.85 4.59L183.85 4.59L183.85 4.59Q183.85 4.14 183.37 4.03L183.37 4.03L183.37 4.03Q183.32 4.02 183.21 4.00L183.21 4.00L183.21 4.00Q183.11 3.99 183.06 3.98L183.06 3.98L183.06 3.98Q183.01 3.96 182.94 3.93L182.94 3.93L182.94 3.93Q182.87 3.91 182.84 3.86L182.84 3.86L182.84 3.86Q182.81 3.81 182.81 3.74L182.81 3.74L182.81 3.74Q182.81 3.57 183.20 3.57L183.20 3.57L183.20 3.57Q183.27 3.57 183.46 3.58L183.46 3.58L183.46 3.58Q183.65 3.58 183.78 3.58L183.78 3.58L183.78 3.58Q184.10 3.58 184.55 3.59L184.55 3.59L184.55 3.59Q185.01 3.60 185.26 3.60L185.26 3.60L185.26 3.60Q185.95 3.60 185.95 3.81L185.95 3.81L185.95 3.81Q185.95 3.86 185.86 3.91L185.86 3.91L185.86 3.91Q185.78 3.95 185.63 4.02L185.63 4.02L185.63 4.02Q185.47 4.09 185.35 4.19L185.35 4.19L185.35 4.19Q184.77 4.63 183.66 6.31L183.66 6.31L183.66 6.31Q182.55 7.99 182.39 8.19L182.39 8.19L182.39 8.19Q182.17 8.47 182.11 8.81L182.11 8.81L182.11 8.81Q182.06 9.14 182.06 9.95L182.06 9.95L182.06 9.95Q182.06 10.14 182.06 10.73L182.06 10.73L182.06 10.73Q182.07 11.33 182.07 11.58L182.07 11.58L182.07 11.91L182.07 11.91Q182.07 12.38 182.23 12.64L182.23 12.64L182.23 12.64Q182.39 12.91 182.53 12.96L182.53 12.96L182.53 12.96Q182.67 13.01 182.81 13.01L182.81 13.01L182.81 13.01Q182.84 13.01 182.95 13.01L182.95 13.01L182.95 13.01Q183.06 13.02 183.09 13.02L183.09 13.02L183.09 13.02Q183.19 13.02 183.25 13.08L183.25 13.08L183.25 13.08Q183.30 13.15 183.30 13.22L183.30 13.22L183.30 13.22Q183.30 13.36 183.23 13.40L183.23 13.40L183.23 13.40Q183.16 13.44 182.97 13.44L182.97 13.44L182.97 13.44Q182.90 13.44 182.36 13.43L182.36 13.43L182.36 13.43Q181.82 13.43 181.57 13.43L181.57 13.43L181.57 13.43Q181.08 13.43 180.67 13.45L180.67 13.45L180.67 13.45Q180.26 13.48 180.03 13.48L180.03 13.48L180.03 13.48Q179.63 13.48 179.63 13.33L179.63 13.33L179.63 13.33Q179.63 13.20 179.71 13.15L179.71 13.15L179.71 13.15Q179.79 13.10 179.97 13.09L179.97 13.09L179.97 13.09Q180.15 13.08 180.24 13.05L180.24 13.05L180.24 13.05Q180.82 12.87 180.82 12.19L180.82 12.19L180.82 12.19Q180.82 12.11 180.83 11.92L180.83 11.92L180.83 11.92Q180.84 11.73 180.84 11.12L180.84 11.12L180.84 11.12Q180.85 10.50 180.85 9.35L180.85 9.35L180.85 9.35Q180.85 9.13 180.82 8.97L180.82 8.97L180.82 8.97Q180.78 8.81 180.73 8.65L180.73 8.65L180.73 8.65Q180.68 8.50 180.50 8.20L180.50 8.20L180.50 8.20Q180.31 7.91 180.12 7.64L180.12 7.64L180.12 7.64Q179.94 7.36 179.50 6.72L179.50 6.72L179.50 6.72Q179.06 6.08 178.65 5.46L178.65 5.46L178.65 5.46Q178.22 4.80 177.87 4.46L177.87 4.46L177.87 4.46Q177.52 4.12 177.33 4.05L177.33 4.05L177.33 4.05Q177.14 3.99 176.89 3.99L176.89 3.99L176.89 3.99Q176.54 3.99 176.54 3.81ZM193.44 8.69L193.44 8.69L193.44 8.69Q193.44 6.34 194.85 4.84L194.85 4.84L194.85 4.84Q196.27 3.33 198.86 3.33L198.86 3.33L198.86 3.33Q200.06 3.33 201.03 3.68L201.03 3.68L201.03 3.68Q201.99 4.03 202.55 4.54L202.55 4.54L202.55 4.54Q203.11 5.05 203.49 5.71L203.49 5.71L203.49 5.71Q203.87 6.37 204.01 6.92L204.01 6.92L204.01 6.92Q204.15 7.48 204.15 7.95L204.15 7.95L204.15 7.95Q204.15 9.86 203.41 11.16L203.41 11.16L203.41 11.16Q202.66 12.47 201.45 13.07L201.45 13.07L201.45 13.07Q200.24 13.66 198.66 13.66L198.66 13.66L198.66 13.66Q196.99 13.66 195.78 12.94L195.78 12.94L195.78 12.94Q194.57 12.21 194.00 11.10L194.00 11.10L194.00 11.10Q193.44 10.00 193.44 8.69ZM194.67 7.98L194.67 7.98L194.67 7.98Q194.67 8.54 194.82 9.19L194.82 9.19L194.82 9.19Q194.98 9.84 195.33 10.54L195.33 10.54L195.33 10.54Q195.68 11.23 196.17 11.78L196.17 11.78L196.17 11.78Q196.67 12.33 197.43 12.69L197.43 12.69L197.43 12.69Q198.20 13.05 199.11 13.05L199.11 13.05L199.11 13.05Q199.58 13.05 200.11 12.90L200.11 12.90L200.11 12.90Q200.63 12.75 201.15 12.45L201.15 12.45L201.15 12.45Q201.67 12.14 202.08 11.70L202.08 11.70L202.08 11.70Q202.48 11.26 202.74 10.62L202.74 10.62L202.74 10.62Q203.00 9.98 203.00 9.24L203.00 9.24L203.00 9.24Q203.00 6.71 201.67 5.30L201.67 5.30L201.67 5.30Q200.34 3.89 198.38 3.89L198.38 3.89L198.38 3.89Q196.84 3.89 195.75 4.93L195.75 4.93L195.75 4.93Q194.67 5.96 194.67 7.98ZM212.04 3.68L212.04 3.68L212.04 3.68Q212.04 3.61 212.06 3.58L212.06 3.58L212.06 3.58Q212.07 3.56 212.14 3.53L212.14 3.53L212.14 3.53Q212.21 3.50 212.37 3.50L212.37 3.50L212.37 3.50Q212.52 3.50 213.01 3.53L213.01 3.53L213.01 3.53Q213.50 3.56 213.95 3.56L213.95 3.56L213.95 3.56Q214.23 3.56 214.46 3.54L214.46 3.54L214.46 3.54Q214.69 3.53 215.26 3.53L215.26 3.53L215.26 3.53Q215.56 3.53 215.56 3.72L215.56 3.72L215.56 3.72Q215.56 3.85 215.46 3.88L215.46 3.88L215.46 3.88Q215.36 3.91 215.21 3.92L215.21 3.92L215.21 3.92Q215.07 3.93 214.92 4.02L214.92 4.02L214.92 4.02Q214.77 4.10 214.68 4.43L214.68 4.43L214.68 4.43Q214.58 4.76 214.58 5.32L214.58 5.32L214.58 5.71L214.58 5.71Q214.58 6.37 214.57 7.37L214.57 7.37L214.57 7.37Q214.56 8.37 214.56 8.74L214.56 8.74L214.56 8.74Q214.56 9.17 214.57 9.39L214.57 9.39L214.57 9.39Q214.58 9.62 214.61 10.04L214.61 10.04L214.61 10.04Q214.63 10.47 214.68 10.72L214.68 10.72L214.68 10.72Q214.73 10.96 214.84 11.32L214.84 11.32L214.84 11.32Q214.96 11.68 215.12 11.89L215.12 11.89L215.12 11.89Q215.28 12.10 215.52 12.35L215.52 12.35L215.52 12.35Q215.77 12.60 216.09 12.73L216.09 12.73L216.09 12.73Q216.41 12.87 216.85 12.96L216.85 12.96L216.85 12.96Q217.28 13.05 217.81 13.05L217.81 13.05L217.81 13.05Q218.26 13.05 218.51 13.03L218.51 13.03L218.51 13.03Q218.76 13.02 219.20 12.94L219.20 12.94L219.20 12.94Q219.65 12.87 219.90 12.72L219.90 12.72L219.90 12.72Q220.16 12.57 220.49 12.27L220.49 12.27L220.49 12.27Q220.82 11.97 221.00 11.54L221.00 11.54L221.00 11.54Q221.19 11.10 221.31 10.43L221.31 10.43L221.31 10.43Q221.44 9.76 221.44 8.90L221.44 8.90L221.44 8.90Q221.44 7.49 221.43 6.75L221.43 6.75L221.43 6.75Q221.42 6.01 221.42 5.94L221.42 5.94L221.42 5.94Q221.42 5.45 221.40 5.17L221.40 5.17L221.40 5.17Q221.38 4.89 221.26 4.55L221.26 4.55L221.26 4.55Q221.14 4.21 220.92 4.06L220.92 4.06L220.92 4.06Q220.78 3.96 220.56 3.93L220.56 3.93L220.56 3.93Q220.33 3.89 220.19 3.87L220.19 3.87L220.19 3.87Q220.05 3.85 220.05 3.75L220.05 3.75L220.05 3.75Q220.05 3.53 220.33 3.53L220.33 3.53L220.33 3.53Q220.42 3.53 220.88 3.54L220.88 3.54L220.88 3.54Q221.34 3.56 221.41 3.56L221.41 3.56L221.41 3.56Q221.75 3.56 222.12 3.54L222.12 3.54L222.12 3.54Q222.50 3.51 222.60 3.51L222.60 3.51L222.60 3.51Q222.89 3.51 222.89 3.70L222.89 3.70L222.89 3.70Q222.89 3.81 222.59 3.98L222.59 3.98L222.59 3.98Q222.29 4.16 222.22 4.30L222.22 4.30L222.22 4.30Q222.07 4.59 222.07 5.22L222.07 5.22L222.07 5.22Q222.07 5.32 222.07 5.62L222.07 5.62L222.07 5.62Q222.08 5.92 222.08 6.16L222.08 6.16L222.08 6.16Q222.08 8.85 221.86 10.28L221.86 10.28L221.86 10.28Q221.63 11.70 221.18 12.36L221.18 12.36L221.18 12.36Q220.72 13.01 219.81 13.40L219.81 13.40L219.81 13.40Q219.07 13.71 217.81 13.71L217.81 13.71L217.81 13.71Q215.47 13.71 214.49 12.81L214.49 12.81L214.49 12.81Q213.72 12.10 213.54 11.09L213.54 11.09L213.54 11.09Q213.36 10.09 213.36 7.64L213.36 7.64L213.36 7.41L213.36 7.41Q213.36 6.86 213.37 6.20L213.37 6.20L213.37 6.20Q213.39 5.54 213.39 5.39L213.39 5.39L213.39 5.39Q213.39 4.62 213.21 4.33L213.21 4.33L213.21 4.33Q213.02 4.05 212.35 3.95L212.35 3.95L212.35 3.95Q212.04 3.91 212.04 3.68ZM240.44 5.32L240.44 5.32L240.44 5.32Q240.44 4.76 240.58 3.88L240.58 3.88L240.58 3.88Q240.58 3.85 240.58 3.78L240.58 3.78L240.58 3.78Q240.59 3.71 240.60 3.69L240.60 3.69L240.60 3.69Q240.60 3.67 240.61 3.62L240.61 3.62L240.61 3.62Q240.62 3.57 240.63 3.55L240.63 3.55L240.63 3.55Q240.65 3.53 240.67 3.49L240.67 3.49L240.67 3.49Q240.69 3.46 240.72 3.44L240.72 3.44L240.72 3.44Q240.74 3.43 240.79 3.42L240.79 3.42L240.79 3.42Q240.83 3.40 240.88 3.39L240.88 3.39L240.88 3.39Q240.94 3.39 241.01 3.39L241.01 3.39L241.01 3.39Q241.23 3.39 242.19 3.44L242.19 3.44L242.19 3.44Q243.15 3.50 244.96 3.50L244.96 3.50L244.96 3.50Q248.04 3.50 249.27 3.43L249.27 3.43L249.27 3.43Q249.28 3.43 249.32 3.42L249.32 3.42L249.32 3.42Q249.35 3.42 249.37 3.42L249.37 3.42L249.37 3.42Q249.52 3.42 249.58 3.50L249.58 3.50L249.58 3.50Q249.63 3.58 249.63 3.65L249.63 3.65L249.63 3.65Q249.63 3.75 249.68 4.24L249.68 4.24L249.68 4.24Q249.72 4.73 249.72 4.79L249.72 4.79L249.72 4.79Q249.72 5.14 249.68 5.23L249.68 5.23L249.68 5.23Q249.63 5.32 249.49 5.32L249.49 5.32L249.49 5.32Q249.38 5.32 249.34 5.15L249.34 5.15L249.34 5.15Q249.23 4.75 249.14 4.60L249.14 4.60L249.14 4.60Q249.06 4.45 248.78 4.34L248.78 4.34L248.78 4.34Q248.50 4.23 247.93 4.23L247.93 4.23L246.11 4.23L246.11 4.23Q245.77 4.23 245.69 4.36L245.69 4.36L245.69 4.36Q245.62 4.49 245.62 5.12L245.62 5.12L245.62 5.81L245.62 5.81Q245.62 7.69 245.59 9.11L245.59 9.11L245.59 9.11Q245.57 10.54 245.57 10.93L245.57 10.93L245.57 10.93Q245.57 11.13 245.57 11.43L245.57 11.43L245.57 11.43Q245.56 11.73 245.56 11.84L245.56 11.84L245.56 11.84Q245.56 12.45 245.76 12.64L245.76 12.64L245.76 12.64Q245.94 12.81 246.16 12.90L246.16 12.90L246.16 12.90Q246.39 12.99 246.55 13.01L246.55 13.01L246.55 13.01Q246.71 13.02 246.82 13.08L246.82 13.08L246.82 13.08Q246.93 13.13 246.93 13.26L246.93 13.26L246.93 13.26Q246.93 13.41 246.86 13.45L246.86 13.45L246.86 13.45Q246.79 13.50 246.60 13.50L246.60 13.50L246.60 13.50Q246.43 13.50 245.85 13.44L245.85 13.44L245.85 13.44Q245.28 13.38 245.04 13.38L245.04 13.38L245.04 13.38Q244.87 13.38 244.36 13.43L244.36 13.43L244.36 13.43Q243.85 13.48 243.61 13.48L243.61 13.48L243.61 13.48Q243.10 13.48 243.10 13.26L243.10 13.26L243.10 13.26Q243.10 13.12 243.18 13.07L243.18 13.07L243.18 13.07Q243.26 13.02 243.51 12.98L243.51 12.98L243.51 12.98Q243.75 12.95 243.82 12.94L243.82 12.94L243.82 12.94Q244.30 12.82 244.36 12.38L244.36 12.38L244.36 12.38Q244.50 11.14 244.50 7.08L244.50 7.08L244.48 4.58L244.48 4.58Q244.48 4.31 244.33 4.25L244.33 4.25L244.33 4.25Q244.17 4.19 243.42 4.19L243.42 4.19L243.42 4.19Q242.44 4.19 241.94 4.24L241.94 4.24L241.94 4.24Q241.44 4.30 241.36 4.35L241.36 4.35L241.36 4.35Q241.28 4.40 241.16 4.54L241.16 4.54L241.16 4.54Q241.04 4.70 240.96 4.91L240.96 4.91L240.96 4.91Q240.88 5.11 240.86 5.24L240.86 5.24L240.86 5.24Q240.84 5.38 240.78 5.47L240.78 5.47L240.78 5.47Q240.72 5.56 240.59 5.56L240.59 5.56L240.59 5.56Q240.44 5.56 240.44 5.32ZM257.28 3.65L257.28 3.65L257.28 3.65Q257.28 3.50 257.67 3.50L257.67 3.50L257.67 3.50Q257.81 3.50 258.31 3.53L258.31 3.53L258.31 3.53Q258.82 3.56 259.25 3.56L259.25 3.56L259.25 3.56Q259.52 3.56 259.76 3.54L259.76 3.54L259.76 3.54Q260.01 3.53 260.48 3.53L260.48 3.53L260.48 3.53Q260.79 3.53 260.79 3.72L260.79 3.72L260.79 3.72Q260.79 3.96 260.30 3.96L260.30 3.96L260.30 3.96Q260.02 3.96 259.90 4.54L259.90 4.54L259.90 4.54Q259.77 5.11 259.77 5.71L259.77 5.71L259.77 6.23L259.77 6.23Q259.77 6.57 259.76 6.99L259.76 6.99L259.76 6.99Q259.74 7.42 259.74 7.52L259.74 7.52L259.74 7.52Q259.74 7.87 259.83 7.97L259.83 7.97L259.83 7.97Q259.91 8.06 260.22 8.06L260.22 8.06L260.22 8.06Q260.25 8.06 260.76 8.06L260.76 8.06L260.76 8.06Q261.28 8.05 262.51 8.05L262.51 8.05L262.51 8.05Q262.63 8.05 262.89 8.06L262.89 8.06L262.89 8.06Q263.16 8.06 263.77 8.07L263.77 8.07L263.77 8.07Q264.38 8.08 265.16 8.08L265.16 8.08L265.16 8.08Q265.26 8.08 265.29 7.84L265.29 7.84L265.29 7.84Q265.31 7.56 265.31 6.13L265.31 6.13L265.31 5.38L265.31 5.38Q265.31 4.83 265.19 4.51L265.19 4.51L265.19 4.51Q265.08 4.19 264.90 4.09L264.90 4.09L264.90 4.09Q264.73 3.99 264.55 3.96L264.55 3.96L264.55 3.96Q264.38 3.93 264.26 3.88L264.26 3.88L264.26 3.88Q264.14 3.84 264.14 3.70L264.14 3.70L264.14 3.70Q264.14 3.56 264.68 3.56L264.68 3.56L264.68 3.56Q264.82 3.56 265.29 3.57L265.29 3.57L265.29 3.57Q265.75 3.58 266.04 3.58L266.04 3.58L266.04 3.58Q266.18 3.58 266.52 3.57L266.52 3.57L266.52 3.57Q266.85 3.56 267.13 3.56L267.13 3.56L267.13 3.56Q267.46 3.56 267.46 3.74L267.46 3.74L267.46 3.74Q267.46 3.92 267.26 3.92L267.26 3.92L267.26 3.92Q266.87 3.92 266.66 4.16L266.66 4.16L266.66 4.16Q266.46 4.40 266.46 4.79L266.46 4.79L266.46 4.79Q266.46 5.25 266.44 6.42L266.44 6.42L266.44 6.42Q266.42 7.59 266.42 8.19L266.42 8.19L266.42 8.19Q266.42 8.51 266.41 9.20L266.41 9.20L266.41 9.20Q266.39 9.90 266.39 10.29L266.39 10.29L266.39 10.81L266.39 10.81Q266.39 11.23 266.42 11.58L266.42 11.58L266.42 11.58Q266.45 11.94 266.45 12.10L266.45 12.10L266.45 12.10Q266.45 13.01 267.62 13.13L267.62 13.13L267.62 13.13Q267.79 13.13 267.79 13.29L267.79 13.29L267.79 13.29Q267.79 13.38 267.65 13.41L267.65 13.41L267.65 13.41Q267.51 13.44 267.11 13.44L267.11 13.44L267.11 13.44Q266.95 13.44 266.59 13.40L266.59 13.40L266.59 13.40Q266.24 13.37 266.03 13.37L266.03 13.37L266.03 13.37Q265.78 13.37 265.42 13.40L265.42 13.40L265.42 13.40Q265.06 13.44 264.71 13.44L264.71 13.44L264.71 13.44Q264.54 13.44 264.47 13.44L264.47 13.44L264.47 13.44Q264.40 13.44 264.33 13.42L264.33 13.42L264.33 13.42Q264.25 13.40 264.23 13.36L264.23 13.36L264.23 13.36Q264.21 13.33 264.21 13.26L264.21 13.26L264.21 13.26Q264.21 13.17 264.35 13.10L264.35 13.10L264.35 13.10Q264.49 13.03 264.66 12.99L264.66 12.99L264.66 12.99Q264.82 12.95 264.99 12.83L264.99 12.83L264.99 12.83Q265.15 12.71 265.17 12.53L265.17 12.53L265.17 12.53Q265.27 12.03 265.27 11.51L265.27 11.51L265.27 11.51Q265.27 11.37 265.28 11.12L265.28 11.12L265.28 11.12Q265.29 10.86 265.29 10.75L265.29 10.75L265.29 10.75Q265.29 10.50 265.30 9.93L265.30 9.93L265.30 9.93Q265.31 9.35 265.31 9.03L265.31 9.03L265.31 9.03Q265.31 8.82 265.15 8.74L265.15 8.74L265.15 8.74Q264.98 8.65 264.43 8.65L264.43 8.65L264.43 8.65Q264.22 8.65 263.47 8.68L263.47 8.68L262.71 8.69L262.71 8.69Q262.09 8.69 261.32 8.67L261.32 8.67L261.32 8.67Q260.55 8.65 260.13 8.65L260.13 8.65L260.13 8.65Q259.92 8.65 259.85 8.74L259.85 8.74L259.85 8.74Q259.78 8.82 259.78 9.17L259.78 9.17L259.78 9.17Q259.78 9.52 259.76 10.08L259.76 10.08L259.76 10.08Q259.73 10.64 259.73 10.89L259.73 10.89L259.73 11.49L259.73 11.49Q259.73 12.10 259.84 12.39L259.84 12.39L259.84 12.39Q259.95 12.68 260.39 12.96L260.39 12.96L260.39 12.96Q260.50 13.03 260.99 13.03L260.99 13.03L260.99 13.03Q261.09 13.03 261.17 13.08L261.17 13.08L261.17 13.08Q261.25 13.13 261.25 13.19L261.25 13.19L261.25 13.19Q261.25 13.44 260.81 13.44L260.81 13.44L260.81 13.44Q260.39 13.44 260.11 13.41L260.11 13.41L260.11 13.41Q259.84 13.38 259.64 13.38L259.64 13.38L259.64 13.38Q259.25 13.38 258.80 13.42L258.80 13.42L258.80 13.42Q258.36 13.45 258.13 13.45L258.13 13.45L258.13 13.45Q257.47 13.45 257.47 13.24L257.47 13.24L257.47 13.24Q257.47 13.12 257.61 13.07L257.61 13.07L257.61 13.07Q257.74 13.02 257.91 13.00L257.91 13.00L257.91 13.00Q258.08 12.98 258.26 12.82L258.26 12.82L258.26 12.82Q258.44 12.66 258.51 12.35L258.51 12.35L258.51 12.35Q258.55 12.11 258.62 10.91L258.62 10.91L258.62 10.91Q258.69 9.70 258.69 8.61L258.69 8.61L258.69 7.81L258.69 7.81Q258.69 7.63 258.70 7.12L258.70 7.12L258.70 7.12Q258.71 6.61 258.71 6.30L258.71 6.30L258.71 6.30Q258.71 5.24 258.62 4.63L258.62 4.63L258.62 4.63Q258.58 4.28 258.25 4.09L258.25 4.09L258.25 4.09Q257.92 3.89 257.57 3.89L257.57 3.89L257.57 3.89Q257.43 3.89 257.36 3.80L257.36 3.80L257.36 3.80Q257.28 3.71 257.28 3.65ZM275.35 3.65L275.35 3.65L275.35 3.65Q275.35 3.46 275.74 3.46L275.74 3.46L275.74 3.46Q275.80 3.46 275.93 3.47L275.93 3.47L275.93 3.47Q276.05 3.49 276.12 3.49L276.12 3.49L276.12 3.49Q276.16 3.49 277.44 3.52L277.44 3.52L277.44 3.52Q278.71 3.56 279.54 3.56L279.54 3.56L279.54 3.56Q279.83 3.56 280.99 3.53L280.99 3.53L280.99 3.53Q282.14 3.50 282.34 3.50L282.34 3.50L282.34 3.50Q282.60 3.50 282.60 3.82L282.60 3.82L282.60 3.82Q282.60 3.91 282.52 4.38L282.52 4.38L282.52 4.38Q282.44 4.84 282.44 5.25L282.44 5.25L282.44 5.25Q282.44 5.38 282.37 5.47L282.37 5.47L282.37 5.47Q282.30 5.56 282.21 5.56L282.21 5.56L282.21 5.56Q282.00 5.56 282.00 5.26L282.00 5.26L282.00 5.26Q282.00 4.89 281.76 4.58L281.76 4.58L281.76 4.58Q281.53 4.27 281.18 4.26L281.18 4.26L281.18 4.26Q279.92 4.16 279.24 4.16L279.24 4.16L278.88 4.16L278.88 4.16Q278.15 4.16 278.03 4.26L278.03 4.26L278.03 4.26Q277.91 4.37 277.89 5.01L277.89 5.01L277.89 5.01Q277.83 6.02 277.83 7.35L277.83 7.35L277.83 7.35Q277.83 8.05 278.10 8.06L278.10 8.06L278.45 8.06L279.03 8.06L279.47 8.06L279.47 8.06Q280.31 8.06 280.59 8.01L280.59 8.01L280.59 8.01Q280.87 7.95 281.09 7.80L281.09 7.80L281.09 7.80Q281.36 7.62 281.41 7.28L281.41 7.28L281.41 7.28Q281.46 7.04 281.61 7.04L281.61 7.04L281.61 7.04Q281.74 7.04 281.76 7.08L281.76 7.08L281.76 7.08Q281.79 7.13 281.79 7.27L281.79 7.27L281.79 7.27Q281.79 7.36 281.74 7.91L281.74 7.91L281.74 7.91Q281.68 8.46 281.68 8.74L281.68 8.74L281.68 8.74Q281.68 9.00 281.70 9.24L281.70 9.24L281.70 9.24Q281.72 9.48 281.72 9.59L281.72 9.59L281.72 9.59Q281.72 9.94 281.62 9.94L281.62 9.94L281.62 9.94Q281.41 9.94 281.32 9.60L281.32 9.60L281.32 9.60Q281.12 9.02 280.97 8.92L280.97 8.92L280.97 8.92Q280.67 8.72 279.62 8.72L279.62 8.72L279.62 8.72Q279.20 8.72 278.94 8.72L278.94 8.72L278.94 8.72Q278.68 8.72 278.61 8.71L278.61 8.71L278.61 8.71Q278.53 8.71 278.48 8.71L278.48 8.71L278.48 8.71Q278.43 8.71 278.39 8.71L278.39 8.71L278.39 8.71Q277.82 8.71 277.82 8.97L277.82 8.97L277.82 8.97Q277.82 9.38 277.80 9.99L277.80 9.99L277.80 9.99Q277.79 10.60 277.79 10.99L277.79 10.99L277.79 11.55L277.79 11.55Q277.79 12.56 278.12 12.66L278.12 12.66L278.12 12.66Q278.47 12.77 278.73 12.77L278.73 12.77L278.73 12.77Q279.78 12.77 280.57 12.67L280.57 12.67L280.57 12.67Q281.36 12.57 281.76 12.42L281.76 12.42L281.76 12.42Q282.16 12.28 282.42 12.10L282.42 12.10L282.42 12.10Q282.69 11.93 282.76 11.78L282.76 11.78L282.76 11.78Q282.84 11.63 282.92 11.54L282.92 11.54L282.92 11.54Q283.00 11.44 283.08 11.44L283.08 11.44L283.08 11.44Q283.25 11.44 283.25 11.68L283.25 11.68L283.25 11.68Q283.25 12.28 282.65 12.89L282.65 12.89L282.65 12.89Q282.04 13.51 281.60 13.51L281.60 13.51L281.60 13.51Q280.59 13.51 279.32 13.44L279.32 13.44L279.32 13.44Q278.05 13.37 277.75 13.37L277.75 13.37L277.75 13.37Q277.35 13.37 276.77 13.43L276.77 13.43L276.77 13.43Q276.18 13.50 275.84 13.50L275.84 13.50L275.84 13.50Q275.55 13.50 275.55 13.36L275.55 13.36L275.55 13.36Q275.55 13.23 275.55 13.19L275.55 13.19L275.55 13.19Q275.55 13.15 275.59 13.12L275.59 13.12L275.59 13.12Q275.63 13.09 275.68 13.08L275.68 13.08L275.68 13.08Q275.73 13.08 275.86 13.03L275.86 13.03L275.86 13.03Q276.00 12.99 276.15 12.92L276.15 12.92L276.15 12.92Q276.49 12.75 276.59 12.26L276.59 12.26L276.59 12.26Q276.70 11.77 276.70 10.21L276.70 10.21L276.70 8.47L276.70 8.47Q276.70 8.09 276.72 7.29L276.72 7.29L276.72 7.29Q276.74 6.50 276.74 6.05L276.74 6.05L276.74 6.05Q276.74 5.67 276.71 4.77L276.71 4.77L276.71 4.77Q276.70 4.37 276.36 4.14L276.36 4.14L276.36 4.14Q276.02 3.92 275.58 3.91L275.58 3.91L275.58 3.91Q275.35 3.91 275.35 3.65ZM300.79 3.72L300.79 3.72L300.79 3.72Q300.79 3.51 300.92 3.51L300.92 3.51L300.92 3.51Q300.96 3.51 301.10 3.52L301.10 3.52L301.10 3.52Q301.24 3.53 301.48 3.53L301.48 3.53L301.48 3.53Q301.76 3.53 302.59 3.52L302.59 3.52L302.59 3.52Q303.42 3.51 303.52 3.51L303.52 3.51L303.52 3.51Q303.84 3.51 304.33 3.49L304.33 3.49L304.33 3.49Q304.82 3.47 305.06 3.47L305.06 3.47L305.06 3.47Q306.33 3.47 307.19 4.08L307.19 4.08L307.19 4.08Q308.04 4.69 308.04 5.81L308.04 5.81L308.04 5.81Q308.04 6.22 307.90 6.57L307.90 6.57L307.90 6.57Q307.75 6.93 307.55 7.15L307.55 7.15L307.55 7.15Q307.34 7.38 307.14 7.54L307.14 7.54L307.14 7.54Q306.94 7.70 306.79 7.79L306.79 7.79L306.79 7.79Q306.64 7.88 306.64 7.90L306.64 7.90L306.64 7.90Q306.64 7.94 306.88 8.00L306.88 8.00L306.88 8.00Q307.12 8.06 307.45 8.21L307.45 8.21L307.45 8.21Q307.79 8.36 308.12 8.61L308.12 8.61L308.12 8.61Q308.45 8.86 308.69 9.36L308.69 9.36L308.69 9.36Q308.92 9.86 308.92 10.53L308.92 10.53L308.92 10.53Q308.92 11.13 308.57 11.82L308.57 11.82L308.57 11.82Q308.22 12.50 307.75 12.82L307.75 12.82L307.75 12.82Q307.13 13.26 306.60 13.40L306.60 13.40L306.60 13.40Q306.07 13.55 305.31 13.55L305.31 13.55L305.31 13.55Q304.75 13.55 303.83 13.47L303.83 13.47L303.83 13.47Q302.90 13.40 302.81 13.40L302.81 13.40L302.81 13.40Q302.65 13.40 302.25 13.43L302.25 13.43L302.25 13.43Q301.85 13.45 301.60 13.45L301.60 13.45L301.41 13.45L301.41 13.45Q301.11 13.45 301.11 13.24L301.11 13.24L301.11 13.24Q301.11 13.05 301.27 13.05L301.27 13.05L301.27 13.05Q301.35 13.05 301.45 13.04L301.45 13.04L301.45 13.04Q301.55 13.03 301.59 13.03L301.59 13.03L301.59 13.03Q301.71 13.03 301.83 12.94L301.83 12.94L301.83 12.94Q301.95 12.85 302.08 12.54L302.08 12.54L302.08 12.54Q302.20 12.22 302.22 11.73L302.22 11.73L302.22 11.73Q302.26 10.82 302.26 7.36L302.26 7.36L302.26 4.98L302.26 4.98Q302.26 4.89 302.23 4.75L302.23 4.75L302.23 4.75Q302.19 4.62 302.09 4.40L302.09 4.40L302.09 4.40Q301.98 4.19 301.71 4.04L301.71 4.04L301.71 4.04Q301.43 3.89 301.03 3.89L301.03 3.89L301.03 3.89Q300.79 3.89 300.79 3.72ZM303.32 12.15L303.32 12.15L303.32 12.15Q303.32 12.99 304.70 12.99L304.70 12.99L305.02 12.99L305.02 12.99Q305.77 12.99 306.22 12.92L306.22 12.92L306.22 12.92Q306.88 12.81 307.31 12.24L307.31 12.24L307.31 12.24Q307.73 11.66 307.73 10.86L307.73 10.86L307.73 10.86Q307.73 10.18 307.48 9.68L307.48 9.68L307.48 9.68Q307.23 9.18 306.91 8.93L306.91 8.93L306.91 8.93Q306.59 8.68 306.15 8.54L306.15 8.54L306.15 8.54Q305.70 8.40 305.46 8.37L305.46 8.37L305.46 8.37Q305.21 8.34 304.99 8.34L304.99 8.34L304.99 8.34Q304.54 8.34 304.26 8.34L304.26 8.34L304.26 8.34Q303.97 8.33 303.89 8.33L303.89 8.33L303.89 8.33Q303.81 8.33 303.77 8.32L303.77 8.32L303.77 8.32Q303.72 8.32 303.69 8.32L303.69 8.32L303.69 8.32Q303.56 8.32 303.51 8.35L303.51 8.35L303.51 8.35Q303.45 8.39 303.40 8.62L303.40 8.62L303.40 8.62Q303.35 8.85 303.35 9.28L303.35 9.28L303.35 9.28Q303.34 9.72 303.34 10.58L303.34 10.58L303.34 10.70L303.34 10.70Q303.34 11.21 303.34 11.54L303.34 11.54L303.34 11.54Q303.34 11.86 303.33 11.99L303.33 11.99L303.33 11.99Q303.32 12.12 303.32 12.15ZM303.41 5.40L303.41 5.81L303.41 5.81Q303.41 6.51 303.42 6.90L303.42 6.90L303.42 6.90Q303.42 7.29 303.45 7.50L303.45 7.50L303.45 7.50Q303.48 7.71 303.51 7.77L303.51 7.77L303.51 7.77Q303.53 7.83 303.59 7.83L303.59 7.83L303.59 7.83Q303.98 7.87 304.30 7.87L304.30 7.87L305.20 7.87L305.20 7.87Q306.08 7.87 306.52 7.41L306.52 7.41L306.52 7.41Q306.96 6.94 306.96 6.22L306.96 6.22L306.96 6.22Q306.96 5.43 306.23 4.70L306.23 4.70L306.23 4.70Q305.49 3.96 304.14 3.96L304.14 3.96L304.14 3.96Q303.70 3.96 303.56 4.22L303.56 4.22L303.56 4.22Q303.41 4.48 303.41 5.40L303.41 5.40ZM316.61 3.65L316.61 3.65L316.61 3.65Q316.61 3.46 317.00 3.46L317.00 3.46L317.00 3.46Q317.06 3.46 317.18 3.47L317.18 3.47L317.18 3.47Q317.31 3.49 317.38 3.49L317.38 3.49L317.38 3.49Q317.42 3.49 318.70 3.52L318.70 3.52L318.70 3.52Q319.97 3.56 320.80 3.56L320.80 3.56L320.80 3.56Q321.09 3.56 322.25 3.53L322.25 3.53L322.25 3.53Q323.40 3.50 323.60 3.50L323.60 3.50L323.60 3.50Q323.86 3.50 323.86 3.82L323.86 3.82L323.86 3.82Q323.86 3.91 323.78 4.38L323.78 4.38L323.78 4.38Q323.69 4.84 323.69 5.25L323.69 5.25L323.69 5.25Q323.69 5.38 323.62 5.47L323.62 5.47L323.62 5.47Q323.55 5.56 323.47 5.56L323.47 5.56L323.47 5.56Q323.26 5.56 323.26 5.26L323.26 5.26L323.26 5.26Q323.26 4.89 323.02 4.58L323.02 4.58L323.02 4.58Q322.78 4.27 322.43 4.26L322.43 4.26L322.43 4.26Q321.17 4.16 320.50 4.16L320.50 4.16L320.14 4.16L320.14 4.16Q319.41 4.16 319.29 4.26L319.29 4.26L319.29 4.26Q319.17 4.37 319.14 5.01L319.14 5.01L319.14 5.01Q319.09 6.02 319.09 7.35L319.09 7.35L319.09 7.35Q319.09 8.05 319.35 8.06L319.35 8.06L319.70 8.06L320.29 8.06L320.73 8.06L320.73 8.06Q321.57 8.06 321.85 8.01L321.85 8.01L321.85 8.01Q322.13 7.95 322.35 7.80L322.35 7.80L322.35 7.80Q322.62 7.62 322.67 7.28L322.67 7.28L322.67 7.28Q322.71 7.04 322.87 7.04L322.87 7.04L322.87 7.04Q322.99 7.04 323.02 7.08L323.02 7.08L323.02 7.08Q323.05 7.13 323.05 7.27L323.05 7.27L323.05 7.27Q323.05 7.36 322.99 7.91L322.99 7.91L322.99 7.91Q322.94 8.46 322.94 8.74L322.94 8.74L322.94 8.74Q322.94 9.00 322.96 9.24L322.96 9.24L322.96 9.24Q322.98 9.48 322.98 9.59L322.98 9.59L322.98 9.59Q322.98 9.94 322.88 9.94L322.88 9.94L322.88 9.94Q322.67 9.94 322.57 9.60L322.57 9.60L322.57 9.60Q322.38 9.02 322.22 8.92L322.22 8.92L322.22 8.92Q321.93 8.72 320.88 8.72L320.88 8.72L320.88 8.72Q320.46 8.72 320.20 8.72L320.20 8.72L320.20 8.72Q319.94 8.72 319.87 8.71L319.87 8.71L319.87 8.71Q319.79 8.71 319.74 8.71L319.74 8.71L319.74 8.71Q319.69 8.71 319.65 8.71L319.65 8.71L319.65 8.71Q319.07 8.71 319.07 8.97L319.07 8.97L319.07 8.97Q319.07 9.38 319.06 9.99L319.06 9.99L319.06 9.99Q319.05 10.60 319.05 10.99L319.05 10.99L319.05 11.55L319.05 11.55Q319.05 12.56 319.38 12.66L319.38 12.66L319.38 12.66Q319.73 12.77 319.98 12.77L319.98 12.77L319.98 12.77Q321.03 12.77 321.83 12.67L321.83 12.67L321.83 12.67Q322.62 12.57 323.02 12.42L323.02 12.42L323.02 12.42Q323.41 12.28 323.68 12.10L323.68 12.10L323.68 12.10Q323.95 11.93 324.02 11.78L324.02 11.78L324.02 11.78Q324.10 11.63 324.18 11.54L324.18 11.54L324.18 11.54Q324.25 11.44 324.34 11.44L324.34 11.44L324.34 11.44Q324.51 11.44 324.51 11.68L324.51 11.68L324.51 11.68Q324.51 12.28 323.90 12.89L323.90 12.89L323.90 12.89Q323.30 13.51 322.85 13.51L322.85 13.51L322.85 13.51Q321.85 13.51 320.58 13.44L320.58 13.44L320.58 13.44Q319.31 13.37 319.00 13.37L319.00 13.37L319.00 13.37Q318.61 13.37 318.02 13.43L318.02 13.43L318.02 13.43Q317.44 13.50 317.10 13.50L317.10 13.50L317.10 13.50Q316.81 13.50 316.81 13.36L316.81 13.36L316.81 13.36Q316.81 13.23 316.81 13.19L316.81 13.19L316.81 13.19Q316.81 13.15 316.85 13.12L316.85 13.12L316.85 13.12Q316.89 13.09 316.94 13.08L316.94 13.08L316.94 13.08Q316.99 13.08 317.12 13.03L317.12 13.03L317.12 13.03Q317.25 12.99 317.41 12.92L317.41 12.92L317.41 12.92Q317.74 12.75 317.85 12.26L317.85 12.26L317.85 12.26Q317.95 11.77 317.95 10.21L317.95 10.21L317.95 8.47L317.95 8.47Q317.95 8.09 317.98 7.29L317.98 7.29L317.98 7.29Q318.00 6.50 318.00 6.05L318.00 6.05L318.00 6.05Q318.00 5.67 317.97 4.77L317.97 4.77L317.97 4.77Q317.95 4.37 317.62 4.14L317.62 4.14L317.62 4.14Q317.28 3.92 316.83 3.91L316.83 3.91L316.83 3.91Q316.61 3.91 316.61 3.65ZM332.61 10.82L332.61 10.82L332.61 10.82Q332.61 10.53 332.81 10.53L332.81 10.53L332.81 10.53Q332.99 10.53 333.03 10.67L333.03 10.67L333.03 10.67Q333.17 11.00 333.29 11.25L333.29 11.25L333.29 11.25Q333.41 11.49 333.68 11.85L333.68 11.85L333.68 11.85Q333.94 12.21 334.25 12.44L334.25 12.44L334.25 12.44Q334.56 12.67 335.04 12.84L335.04 12.84L335.04 12.84Q335.52 13.01 336.10 13.01L336.10 13.01L336.10 13.01Q337.15 13.01 337.79 12.45L337.79 12.45L337.79 12.45Q338.42 11.90 338.42 11.00L338.42 11.00L338.42 11.00Q338.42 10.35 337.99 9.90L337.99 9.90L337.99 9.90Q337.55 9.46 336.99 9.27L336.99 9.27L336.99 9.27Q336.43 9.09 335.57 8.77L335.57 8.77L335.57 8.77Q334.71 8.46 334.17 8.13L334.17 8.13L334.17 8.13Q332.89 7.38 332.89 6.08L332.89 6.08L332.89 6.08Q332.89 4.83 333.80 4.08L333.80 4.08L333.80 4.08Q334.70 3.33 336.14 3.33L336.14 3.33L336.14 3.33Q336.67 3.33 337.41 3.56L337.41 3.56L337.41 3.56Q338.14 3.79 338.16 3.79L338.16 3.79L338.16 3.79Q338.20 3.79 338.31 3.74L338.31 3.74L338.31 3.74Q338.42 3.68 338.48 3.68L338.48 3.68L338.48 3.68Q338.66 3.68 338.69 3.79L338.69 3.79L338.69 3.79Q338.98 5.49 338.98 5.70L338.98 5.70L338.98 5.70Q338.98 6.09 338.79 6.09L338.79 6.09L338.79 6.09Q338.66 6.09 338.59 5.89L338.59 5.89L338.59 5.89Q338.42 5.49 338.26 5.24L338.26 5.24L338.26 5.24Q338.10 4.98 338.03 4.91L338.03 4.91L338.03 4.91Q337.96 4.84 337.67 4.58L337.67 4.58L337.67 4.58Q336.91 3.91 335.83 3.91L335.83 3.91L335.83 3.91Q334.96 3.91 334.38 4.33L334.38 4.33L334.38 4.33Q333.79 4.75 333.79 5.46L333.79 5.46L333.79 5.46Q333.79 6.09 334.13 6.50L334.13 6.50L334.13 6.50Q334.47 6.90 335.05 7.13L335.05 7.13L335.05 7.13Q335.62 7.35 336.25 7.55L336.25 7.55L336.25 7.55Q336.88 7.74 337.59 8.09L337.59 8.09L337.59 8.09Q338.30 8.44 338.76 8.93L338.76 8.93L338.76 8.93Q339.32 9.53 339.32 10.43L339.32 10.43L339.32 10.43Q339.32 11.90 338.38 12.76L338.38 12.76L338.38 12.76Q337.44 13.62 336.06 13.62L336.06 13.62L336.06 13.62Q335.09 13.62 334.50 13.52L334.50 13.52L334.50 13.52Q333.91 13.41 333.30 13.09L333.30 13.09L333.30 13.09Q333.12 12.98 332.86 12.00L332.86 12.00L332.86 12.00Q332.61 11.02 332.61 10.82ZM347.41 5.32L347.41 5.32L347.41 5.32Q347.41 4.76 347.55 3.88L347.55 3.88L347.55 3.88Q347.55 3.85 347.56 3.78L347.56 3.78L347.56 3.78Q347.56 3.71 347.57 3.69L347.57 3.69L347.57 3.69Q347.58 3.67 347.59 3.62L347.59 3.62L347.59 3.62Q347.59 3.57 347.61 3.55L347.61 3.55L347.61 3.55Q347.62 3.53 347.64 3.49L347.64 3.49L347.64 3.49Q347.66 3.46 347.69 3.44L347.69 3.44L347.69 3.44Q347.72 3.43 347.76 3.42L347.76 3.42L347.76 3.42Q347.80 3.40 347.86 3.39L347.86 3.39L347.86 3.39Q347.91 3.39 347.98 3.39L347.98 3.39L347.98 3.39Q348.21 3.39 349.17 3.44L349.17 3.44L349.17 3.44Q350.13 3.50 351.93 3.50L351.93 3.50L351.93 3.50Q355.01 3.50 356.24 3.43L356.24 3.43L356.24 3.43Q356.26 3.43 356.29 3.42L356.29 3.42L356.29 3.42Q356.33 3.42 356.34 3.42L356.34 3.42L356.34 3.42Q356.50 3.42 356.55 3.50L356.55 3.50L356.55 3.50Q356.61 3.58 356.61 3.65L356.61 3.65L356.61 3.65Q356.61 3.75 356.65 4.24L356.65 4.24L356.65 4.24Q356.69 4.73 356.69 4.79L356.69 4.79L356.69 4.79Q356.69 5.14 356.65 5.23L356.65 5.23L356.65 5.23Q356.61 5.32 356.47 5.32L356.47 5.32L356.47 5.32Q356.36 5.32 356.31 5.15L356.31 5.15L356.31 5.15Q356.20 4.75 356.12 4.60L356.12 4.60L356.12 4.60Q356.03 4.45 355.75 4.34L355.75 4.34L355.75 4.34Q355.47 4.23 354.90 4.23L354.90 4.23L353.08 4.23L353.08 4.23Q352.74 4.23 352.67 4.36L352.67 4.36L352.67 4.36Q352.59 4.49 352.59 5.12L352.59 5.12L352.59 5.81L352.59 5.81Q352.59 7.69 352.57 9.11L352.57 9.11L352.57 9.11Q352.55 10.54 352.55 10.93L352.55 10.93L352.55 10.93Q352.55 11.13 352.54 11.43L352.54 11.43L352.54 11.43Q352.53 11.73 352.53 11.84L352.53 11.84L352.53 11.84Q352.53 12.45 352.73 12.64L352.73 12.64L352.73 12.64Q352.91 12.81 353.14 12.90L353.14 12.90L353.14 12.90Q353.36 12.99 353.52 13.01L353.52 13.01L353.52 13.01Q353.68 13.02 353.79 13.08L353.79 13.08L353.79 13.08Q353.91 13.13 353.91 13.26L353.91 13.26L353.91 13.26Q353.91 13.41 353.84 13.45L353.84 13.45L353.84 13.45Q353.77 13.50 353.57 13.50L353.57 13.50L353.57 13.50Q353.40 13.50 352.83 13.44L352.83 13.44L352.83 13.44Q352.25 13.38 352.02 13.38L352.02 13.38L352.02 13.38Q351.85 13.38 351.34 13.43L351.34 13.43L351.34 13.43Q350.83 13.48 350.59 13.48L350.59 13.48L350.59 13.48Q350.07 13.48 350.07 13.26L350.07 13.26L350.07 13.26Q350.07 13.12 350.15 13.07L350.15 13.07L350.15 13.07Q350.24 13.02 350.48 12.98L350.48 12.98L350.48 12.98Q350.73 12.95 350.80 12.94L350.80 12.94L350.80 12.94Q351.27 12.82 351.33 12.38L351.33 12.38L351.33 12.38Q351.47 11.14 351.47 7.08L351.47 7.08L351.46 4.58L351.46 4.58Q351.46 4.31 351.30 4.25L351.30 4.25L351.30 4.25Q351.15 4.19 350.39 4.19L350.39 4.19L350.39 4.19Q349.41 4.19 348.92 4.24L348.92 4.24L348.92 4.24Q348.42 4.30 348.33 4.35L348.33 4.35L348.33 4.35Q348.25 4.40 348.14 4.54L348.14 4.54L348.14 4.54Q348.01 4.70 347.94 4.91L347.94 4.91L347.94 4.91Q347.86 5.11 347.84 5.24L347.84 5.24L347.84 5.24Q347.82 5.38 347.75 5.47L347.75 5.47L347.75 5.47Q347.69 5.56 347.56 5.56L347.56 5.56L347.56 5.56Q347.41 5.56 347.41 5.32Z"></path></g></svg>